<?xml version="1.0" encoding="UTF-8" standalone="no"?>
<!DOCTYPE svg PUBLIC "-//W3C//DTD SVG 1.1//EN"
 "http://www.w3.org/Graphics/SVG/1.1/DTD/svg11.dtd">
<!-- Generated by graphviz version 13.1.2 (20250808.2320)
 -->
<!-- Pages: 1 -->
<svg width="206pt" height="270pt"
 viewBox="0.00 0.00 206.00 270.00" xmlns="http://www.w3.org/2000/svg" xmlns:xlink="http://www.w3.org/1999/xlink">
<g id="graph0" class="graph" transform="scale(1 1) rotate(0) translate(4 266)">
<polygon fill="white" stroke="none" points="-4,4 -4,-266 202,-266 202,4 -4,4"/>
<!-- w12_s -->
<g id="node1" class="node">
<title>w12_s</title>
<polygon fill="none" stroke="black" points="162,-38.5 108,-38.5 108,0 162,0 162,-38.5"/>
<text xml:space="preserve" text-anchor="start" x="125.62" y="-24" font-family="Times,serif" font-size="10.00">[</text>
<text xml:space="preserve" text-anchor="start" x="128.62" y="-24" font-family="Times,serif" font-size="10.00" fill="blue">1</text>
<text xml:space="preserve" text-anchor="start" x="133.88" y="-24" font-family="Times,serif" font-size="10.00">,</text>
<text xml:space="preserve" text-anchor="start" x="136.12" y="-24" font-family="Times,serif" font-size="10.00" fill="blue">2</text>
<text xml:space="preserve" text-anchor="start" x="141.38" y="-24" font-family="Times,serif" font-size="10.00">]</text>
<text xml:space="preserve" text-anchor="start" x="132.38" y="-7.75" font-family="Times,serif" font-size="10.00">1</text>
</g>
<!-- w12_s1 -->
<g id="node2" class="node">
<title>w12_s1</title>
<polygon fill="none" stroke="black" points="126,-113 72,-113 72,-74.5 126,-74.5 126,-113"/>
<text xml:space="preserve" text-anchor="start" x="89.62" y="-98.5" font-family="Times,serif" font-size="10.00">[</text>
<text xml:space="preserve" text-anchor="start" x="92.62" y="-98.5" font-family="Times,serif" font-size="10.00" fill="red">1</text>
<text xml:space="preserve" text-anchor="start" x="97.88" y="-98.5" font-family="Times,serif" font-size="10.00">,</text>
<text xml:space="preserve" text-anchor="start" x="100.12" y="-98.5" font-family="Times,serif" font-size="10.00" fill="blue">2</text>
<text xml:space="preserve" text-anchor="start" x="105.38" y="-98.5" font-family="Times,serif" font-size="10.00">]</text>
<text xml:space="preserve" text-anchor="start" x="96.38" y="-82.25" font-family="Times,serif" font-size="10.00">2</text>
</g>
<!-- w12_s1&#45;&gt;w12_s -->
<g id="edge7" class="edge">
<title>w12_s1&#45;&gt;w12_s</title>
<path fill="none" stroke="black" d="M108.27,-74.08C112.08,-66.41 116.58,-57.35 120.78,-48.88"/>
<polygon fill="black" stroke="black" points="123.9,-50.48 125.21,-39.96 117.63,-47.36 123.9,-50.48"/>
</g>
<!-- w12_s2 -->
<g id="node3" class="node">
<title>w12_s2</title>
<polygon fill="none" stroke="black" points="54,-187.5 0,-187.5 0,-149 54,-149 54,-187.5"/>
<text xml:space="preserve" text-anchor="start" x="17.62" y="-173" font-family="Times,serif" font-size="10.00">[</text>
<text xml:space="preserve" text-anchor="start" x="20.62" y="-173" font-family="Times,serif" font-size="10.00" fill="blue">1</text>
<text xml:space="preserve" text-anchor="start" x="25.88" y="-173" font-family="Times,serif" font-size="10.00">,</text>
<text xml:space="preserve" text-anchor="start" x="28.12" y="-173" font-family="Times,serif" font-size="10.00" fill="red">2</text>
<text xml:space="preserve" text-anchor="start" x="33.38" y="-173" font-family="Times,serif" font-size="10.00">]</text>
<text xml:space="preserve" text-anchor="start" x="24.38" y="-156.75" font-family="Times,serif" font-size="10.00">3</text>
</g>
<!-- w12_s2&#45;&gt;w12_s1 -->
<g id="edge3" class="edge">
<title>w12_s2&#45;&gt;w12_s1</title>
<path fill="none" stroke="black" d="M45.54,-148.58C53.84,-140.23 63.76,-130.23 72.8,-121.14"/>
<polygon fill="black" stroke="black" points="75.14,-123.74 79.7,-114.18 70.17,-118.81 75.14,-123.74"/>
</g>
<!-- w21_s -->
<g id="node4" class="node">
<title>w21_s</title>
<polygon fill="none" stroke="black" points="198,-113 144,-113 144,-74.5 198,-74.5 198,-113"/>
<text xml:space="preserve" text-anchor="start" x="161.62" y="-98.5" font-family="Times,serif" font-size="10.00">[</text>
<text xml:space="preserve" text-anchor="start" x="164.62" y="-98.5" font-family="Times,serif" font-size="10.00" fill="blue">2</text>
<text xml:space="preserve" text-anchor="start" x="169.88" y="-98.5" font-family="Times,serif" font-size="10.00">,</text>
<text xml:space="preserve" text-anchor="start" x="172.12" y="-98.5" font-family="Times,serif" font-size="10.00" fill="blue">1</text>
<text xml:space="preserve" text-anchor="start" x="177.38" y="-98.5" font-family="Times,serif" font-size="10.00">]</text>
<text xml:space="preserve" text-anchor="start" x="168.38" y="-82.25" font-family="Times,serif" font-size="10.00">2</text>
</g>
<!-- w21_s&#45;&gt;w12_s -->
<g id="edge10" class="edge">
<title>w21_s&#45;&gt;w12_s</title>
<path fill="none" stroke="black" d="M161.73,-74.08C157.92,-66.41 153.42,-57.35 149.22,-48.88"/>
<polygon fill="black" stroke="black" points="152.37,-47.36 144.79,-39.96 146.1,-50.48 152.37,-47.36"/>
</g>
<!-- w21_s1 -->
<g id="node5" class="node">
<title>w21_s1</title>
<polygon fill="none" stroke="black" points="198,-187.5 144,-187.5 144,-149 198,-149 198,-187.5"/>
<text xml:space="preserve" text-anchor="start" x="161.62" y="-173" font-family="Times,serif" font-size="10.00">[</text>
<text xml:space="preserve" text-anchor="start" x="164.62" y="-173" font-family="Times,serif" font-size="10.00" fill="red">2</text>
<text xml:space="preserve" text-anchor="start" x="169.88" y="-173" font-family="Times,serif" font-size="10.00">,</text>
<text xml:space="preserve" text-anchor="start" x="172.12" y="-173" font-family="Times,serif" font-size="10.00" fill="blue">1</text>
<text xml:space="preserve" text-anchor="start" x="177.38" y="-173" font-family="Times,serif" font-size="10.00">]</text>
<text xml:space="preserve" text-anchor="start" x="168.38" y="-156.75" font-family="Times,serif" font-size="10.00">3</text>
</g>
<!-- w21_s1&#45;&gt;w12_s1 -->
<g id="edge9" class="edge">
<title>w21_s1&#45;&gt;w12_s1</title>
<path fill="none" stroke="black" d="M152.46,-148.58C144.16,-140.23 134.24,-130.23 125.2,-121.14"/>
<polygon fill="black" stroke="black" points="127.83,-118.81 118.3,-114.18 122.86,-123.74 127.83,-118.81"/>
</g>
<!-- w21_s1&#45;&gt;w21_s -->
<g id="edge1" class="edge">
<title>w21_s1&#45;&gt;w21_s</title>
<path fill="none" stroke="black" d="M171,-148.58C171,-141.25 171,-132.66 171,-124.51"/>
<polygon fill="black" stroke="black" points="174.5,-124.62 171,-114.62 167.5,-124.62 174.5,-124.62"/>
</g>
<!-- w21_s2 -->
<g id="node6" class="node">
<title>w21_s2</title>
<polygon fill="none" stroke="black" points="126,-187.5 72,-187.5 72,-149 126,-149 126,-187.5"/>
<text xml:space="preserve" text-anchor="start" x="89.62" y="-173" font-family="Times,serif" font-size="10.00">[</text>
<text xml:space="preserve" text-anchor="start" x="92.62" y="-173" font-family="Times,serif" font-size="10.00" fill="blue">2</text>
<text xml:space="preserve" text-anchor="start" x="97.88" y="-173" font-family="Times,serif" font-size="10.00">,</text>
<text xml:space="preserve" text-anchor="start" x="100.12" y="-173" font-family="Times,serif" font-size="10.00" fill="red">1</text>
<text xml:space="preserve" text-anchor="start" x="105.38" y="-173" font-family="Times,serif" font-size="10.00">]</text>
<text xml:space="preserve" text-anchor="start" x="96.38" y="-156.75" font-family="Times,serif" font-size="10.00">3</text>
</g>
<!-- w21_s2&#45;&gt;w12_s1 -->
<g id="edge4" class="edge">
<title>w21_s2&#45;&gt;w12_s1</title>
<path fill="none" stroke="black" d="M99,-148.58C99,-141.25 99,-132.66 99,-124.51"/>
<polygon fill="black" stroke="black" points="102.5,-124.62 99,-114.62 95.5,-124.62 102.5,-124.62"/>
</g>
<!-- w21_s2&#45;&gt;w21_s -->
<g id="edge6" class="edge">
<title>w21_s2&#45;&gt;w21_s</title>
<path fill="none" stroke="black" d="M117.54,-148.58C125.84,-140.23 135.76,-130.23 144.8,-121.14"/>
<polygon fill="black" stroke="black" points="147.14,-123.74 151.7,-114.18 142.17,-118.81 147.14,-123.74"/>
</g>
<!-- w21_s1_2 -->
<g id="node7" class="node">
<title>w21_s1_2</title>
<polygon fill="none" stroke="black" points="126,-262 72,-262 72,-223.5 126,-223.5 126,-262"/>
<text xml:space="preserve" text-anchor="start" x="89.62" y="-247.5" font-family="Times,serif" font-size="10.00">[</text>
<text xml:space="preserve" text-anchor="start" x="92.62" y="-247.5" font-family="Times,serif" font-size="10.00" fill="red">2</text>
<text xml:space="preserve" text-anchor="start" x="97.88" y="-247.5" font-family="Times,serif" font-size="10.00">,</text>
<text xml:space="preserve" text-anchor="start" x="100.12" y="-247.5" font-family="Times,serif" font-size="10.00" fill="red">1</text>
<text xml:space="preserve" text-anchor="start" x="105.38" y="-247.5" font-family="Times,serif" font-size="10.00">]</text>
<text xml:space="preserve" text-anchor="start" x="96.38" y="-231.25" font-family="Times,serif" font-size="10.00">4</text>
</g>
<!-- w21_s1_2&#45;&gt;w12_s2 -->
<g id="edge5" class="edge">
<title>w21_s1_2&#45;&gt;w12_s2</title>
<path fill="none" stroke="black" d="M80.46,-223.08C72.16,-214.73 62.24,-204.73 53.2,-195.64"/>
<polygon fill="black" stroke="black" points="55.83,-193.31 46.3,-188.68 50.86,-198.24 55.83,-193.31"/>
</g>
<!-- w21_s1_2&#45;&gt;w21_s1 -->
<g id="edge8" class="edge">
<title>w21_s1_2&#45;&gt;w21_s1</title>
<path fill="none" stroke="black" d="M117.54,-223.08C125.84,-214.73 135.76,-204.73 144.8,-195.64"/>
<polygon fill="black" stroke="black" points="147.14,-198.24 151.7,-188.68 142.17,-193.31 147.14,-198.24"/>
</g>
<!-- w21_s1_2&#45;&gt;w21_s2 -->
<g id="edge2" class="edge">
<title>w21_s1_2&#45;&gt;w21_s2</title>
<path fill="none" stroke="black" d="M99,-223.08C99,-215.75 99,-207.16 99,-199.01"/>
<polygon fill="black" stroke="black" points="102.5,-199.12 99,-189.12 95.5,-199.12 102.5,-199.12"/>
</g>
</g>
</svg>
