<?xml version="1.0" encoding="UTF-8" standalone="no"?>
<!DOCTYPE svg PUBLIC "-//W3C//DTD SVG 1.1//EN"
 "http://www.w3.org/Graphics/SVG/1.1/DTD/svg11.dtd">
<!-- Generated by graphviz version 13.1.2 (20250808.2320)
 -->
<!-- Pages: 1 -->
<svg width="134pt" height="260pt"
 viewBox="0.00 0.00 134.00 260.00" xmlns="http://www.w3.org/2000/svg" xmlns:xlink="http://www.w3.org/1999/xlink">
<g id="graph0" class="graph" transform="scale(1 1) rotate(0) translate(4 256)">
<polygon fill="white" stroke="none" points="-4,4 -4,-256 130,-256 130,4 -4,4"/>
<!-- [1,2,3] -->
<g id="node1" class="node">
<title>[1,2,3]</title>
<polygon fill="none" stroke="black" points="90,-36 36,-36 36,0 90,0 90,-36"/>
<text xml:space="preserve" text-anchor="middle" x="63" y="-14.12" font-family="Times,serif" font-size="10.00">[1,2,3]</text>
</g>
<!-- [1,3,2] -->
<g id="node2" class="node">
<title>[1,3,2]</title>
<polygon fill="none" stroke="black" points="54,-108 0,-108 0,-72 54,-72 54,-108"/>
<text xml:space="preserve" text-anchor="middle" x="27" y="-86.12" font-family="Times,serif" font-size="10.00">[1,3,2]</text>
</g>
<!-- [1,3,2]&#45;&gt;[1,2,3] -->
<g id="edge7" class="edge">
<title>[1,3,2]&#45;&gt;[1,2,3]</title>
<path fill="none" stroke="black" d="M35.9,-71.7C41.48,-60.85 48.64,-46.92 54.2,-36.1"/>
</g>
<!-- [2,1,3] -->
<g id="node3" class="node">
<title>[2,1,3]</title>
<polygon fill="none" stroke="black" points="126,-108 72,-108 72,-72 126,-72 126,-108"/>
<text xml:space="preserve" text-anchor="middle" x="99" y="-86.12" font-family="Times,serif" font-size="10.00">[2,1,3]</text>
</g>
<!-- [2,1,3]&#45;&gt;[1,2,3] -->
<g id="edge6" class="edge">
<title>[2,1,3]&#45;&gt;[1,2,3]</title>
<path fill="none" stroke="black" d="M90.1,-71.7C84.52,-60.85 77.36,-46.92 71.8,-36.1"/>
</g>
<!-- [2,3,1] -->
<g id="node4" class="node">
<title>[2,3,1]</title>
<polygon fill="none" stroke="black" points="54,-180 0,-180 0,-144 54,-144 54,-180"/>
<text xml:space="preserve" text-anchor="middle" x="27" y="-158.12" font-family="Times,serif" font-size="10.00">[2,3,1]</text>
</g>
<!-- [2,3,1]&#45;&gt;[1,3,2] -->
<g id="edge2" class="edge">
<title>[2,3,1]&#45;&gt;[1,3,2]</title>
<path fill="none" stroke="black" d="M27,-143.7C27,-132.85 27,-118.92 27,-108.1"/>
</g>
<!-- [2,3,1]&#45;&gt;[2,1,3] -->
<g id="edge1" class="edge">
<title>[2,3,1]&#45;&gt;[2,1,3]</title>
<path fill="none" stroke="black" d="M44.8,-143.7C55.87,-132.93 70.07,-119.12 81.16,-108.35"/>
</g>
<!-- [3,1,2] -->
<g id="node5" class="node">
<title>[3,1,2]</title>
<polygon fill="none" stroke="black" points="126,-180 72,-180 72,-144 126,-144 126,-180"/>
<text xml:space="preserve" text-anchor="middle" x="99" y="-158.12" font-family="Times,serif" font-size="10.00">[3,1,2]</text>
</g>
<!-- [3,1,2]&#45;&gt;[1,3,2] -->
<g id="edge4" class="edge">
<title>[3,1,2]&#45;&gt;[1,3,2]</title>
<path fill="none" stroke="black" d="M81.2,-143.7C70.13,-132.93 55.93,-119.12 44.84,-108.35"/>
</g>
<!-- [3,1,2]&#45;&gt;[2,1,3] -->
<g id="edge5" class="edge">
<title>[3,1,2]&#45;&gt;[2,1,3]</title>
<path fill="none" stroke="black" d="M99,-143.7C99,-132.85 99,-118.92 99,-108.1"/>
</g>
<!-- [3,2,1] -->
<g id="node6" class="node">
<title>[3,2,1]</title>
<polygon fill="none" stroke="black" points="90,-252 36,-252 36,-216 90,-216 90,-252"/>
<text xml:space="preserve" text-anchor="middle" x="63" y="-230.12" font-family="Times,serif" font-size="10.00">[3,2,1]</text>
</g>
<!-- [3,2,1]&#45;&gt;[2,3,1] -->
<g id="edge3" class="edge">
<title>[3,2,1]&#45;&gt;[2,3,1]</title>
<path fill="none" stroke="black" d="M54.1,-215.7C48.52,-204.85 41.36,-190.92 35.8,-180.1"/>
</g>
<!-- [3,2,1]&#45;&gt;[3,1,2] -->
<g id="edge8" class="edge">
<title>[3,2,1]&#45;&gt;[3,1,2]</title>
<path fill="none" stroke="black" d="M71.9,-215.7C77.48,-204.85 84.64,-190.92 90.2,-180.1"/>
</g>
</g>
</svg>
