<?xml version="1.0" encoding="UTF-8" standalone="no"?>
<!DOCTYPE svg PUBLIC "-//W3C//DTD SVG 1.1//EN"
 "http://www.w3.org/Graphics/SVG/1.1/DTD/svg11.dtd">
<!-- Generated by graphviz version 13.1.2 (20250808.2320)
 -->
<!-- Pages: 1 -->
<svg width="440pt" height="476pt"
 viewBox="0.00 0.00 440.00 476.00" xmlns="http://www.w3.org/2000/svg" xmlns:xlink="http://www.w3.org/1999/xlink">
<g id="graph0" class="graph" transform="scale(1 1) rotate(0) translate(4 472)">
<polygon fill="white" stroke="none" points="-4,4 -4,-472 436.36,-472 436.36,4 -4,4"/>
<!-- 1234 -->
<g id="node1" class="node">
<title>1234</title>
<polygon fill="none" stroke="black" points="216.36,-36 162.36,-36 162.36,0 216.36,0 216.36,-36"/>
<text xml:space="preserve" text-anchor="middle" x="189.36" y="-13.72" font-family="Times,serif" font-size="12.00">1234</text>
</g>
<!-- 1243 -->
<g id="node2" class="node">
<title>1243</title>
<polygon fill="none" stroke="black" points="144.36,-108 90.36,-108 90.36,-72 144.36,-72 144.36,-108"/>
<text xml:space="preserve" text-anchor="middle" x="117.36" y="-85.72" font-family="Times,serif" font-size="12.00">1243</text>
</g>
<!-- 1243&#45;&gt;1234 -->
<g id="edge79" class="edge">
<title>1243&#45;&gt;1234</title>
<path fill="none" stroke="black" d="M135.16,-71.7C146.23,-60.93 160.43,-47.12 171.52,-36.35"/>
</g>
<!-- 1324 -->
<g id="node3" class="node">
<title>1324</title>
<polygon fill="none" stroke="black" points="216.36,-108 162.36,-108 162.36,-72 216.36,-72 216.36,-108"/>
<text xml:space="preserve" text-anchor="middle" x="189.36" y="-85.72" font-family="Times,serif" font-size="12.00">1324</text>
</g>
<!-- 1324&#45;&gt;1234 -->
<g id="edge32" class="edge">
<title>1324&#45;&gt;1234</title>
<path fill="none" stroke="black" d="M189.36,-71.7C189.36,-60.85 189.36,-46.92 189.36,-36.1"/>
</g>
<!-- 1342 -->
<g id="node4" class="node">
<title>1342</title>
<polygon fill="none" stroke="black" points="144.36,-180 90.36,-180 90.36,-144 144.36,-144 144.36,-180"/>
<text xml:space="preserve" text-anchor="middle" x="117.36" y="-157.72" font-family="Times,serif" font-size="12.00">1342</text>
</g>
<!-- 1342&#45;&gt;1243 -->
<g id="edge60" class="edge">
<title>1342&#45;&gt;1243</title>
<path fill="none" stroke="black" d="M117.36,-143.7C117.36,-132.85 117.36,-118.92 117.36,-108.1"/>
</g>
<!-- 1342&#45;&gt;1324 -->
<g id="edge57" class="edge">
<title>1342&#45;&gt;1324</title>
<path fill="none" stroke="black" d="M135.16,-143.7C146.23,-132.93 160.43,-119.12 171.52,-108.35"/>
</g>
<!-- 1423 -->
<g id="node5" class="node">
<title>1423</title>
<polygon fill="none" stroke="black" points="72.36,-180 18.36,-180 18.36,-144 72.36,-144 72.36,-180"/>
<text xml:space="preserve" text-anchor="middle" x="45.36" y="-157.72" font-family="Times,serif" font-size="12.00">1423</text>
</g>
<!-- 1423&#45;&gt;1243 -->
<g id="edge52" class="edge">
<title>1423&#45;&gt;1243</title>
<path fill="none" stroke="black" d="M63.16,-143.7C74.23,-132.93 88.43,-119.12 99.52,-108.35"/>
</g>
<!-- 1423&#45;&gt;1324 -->
<g id="edge53" class="edge">
<title>1423&#45;&gt;1324</title>
<path fill="none" stroke="black" d="M72.78,-147.67C98.41,-135.21 136.45,-116.72 162.04,-104.28"/>
</g>
<!-- 1432 -->
<g id="node6" class="node">
<title>1432</title>
<polygon fill="none" stroke="black" points="72.36,-252 18.36,-252 18.36,-216 72.36,-216 72.36,-252"/>
<text xml:space="preserve" text-anchor="middle" x="45.36" y="-229.72" font-family="Times,serif" font-size="12.00">1432</text>
</g>
<!-- 1432&#45;&gt;1342 -->
<g id="edge78" class="edge">
<title>1432&#45;&gt;1342</title>
<path fill="none" stroke="black" d="M63.16,-215.7C74.23,-204.93 88.43,-191.12 99.52,-180.35"/>
</g>
<!-- 1432&#45;&gt;1423 -->
<g id="edge33" class="edge">
<title>1432&#45;&gt;1423</title>
<path fill="none" stroke="black" d="M45.36,-215.7C45.36,-204.85 45.36,-190.92 45.36,-180.1"/>
</g>
<!-- 2134 -->
<g id="node7" class="node">
<title>2134</title>
<polygon fill="none" stroke="black" points="288.36,-108 234.36,-108 234.36,-72 288.36,-72 288.36,-108"/>
<text xml:space="preserve" text-anchor="middle" x="261.36" y="-85.72" font-family="Times,serif" font-size="12.00">2134</text>
</g>
<!-- 2134&#45;&gt;1234 -->
<g id="edge49" class="edge">
<title>2134&#45;&gt;1234</title>
<path fill="none" stroke="black" d="M243.56,-71.7C232.49,-60.93 218.29,-47.12 207.2,-36.35"/>
</g>
<!-- 2143 -->
<g id="node8" class="node">
<title>2143</title>
<polygon fill="none" stroke="black" points="288.36,-180 234.36,-180 234.36,-144 288.36,-144 288.36,-180"/>
<text xml:space="preserve" text-anchor="middle" x="261.36" y="-157.72" font-family="Times,serif" font-size="12.00">2143</text>
</g>
<!-- 2143&#45;&gt;1243 -->
<g id="edge54" class="edge">
<title>2143&#45;&gt;1243</title>
<path fill="none" stroke="black" d="M233.94,-147.67C208.31,-135.21 170.27,-116.72 144.68,-104.28"/>
</g>
<!-- 2143&#45;&gt;2134 -->
<g id="edge81" class="edge">
<title>2143&#45;&gt;2134</title>
<path fill="none" stroke="black" d="M261.36,-143.7C261.36,-132.85 261.36,-118.92 261.36,-108.1"/>
</g>
<!-- 2314 -->
<g id="node9" class="node">
<title>2314</title>
<polygon fill="none" stroke="black" points="360.36,-180 306.36,-180 306.36,-144 360.36,-144 360.36,-180"/>
<text xml:space="preserve" text-anchor="middle" x="333.36" y="-157.72" font-family="Times,serif" font-size="12.00">2314</text>
</g>
<!-- 2314&#45;&gt;1324 -->
<g id="edge64" class="edge">
<title>2314&#45;&gt;1324</title>
<path fill="none" stroke="black" d="M305.94,-147.67C280.31,-135.21 242.27,-116.72 216.68,-104.28"/>
</g>
<!-- 2314&#45;&gt;2134 -->
<g id="edge39" class="edge">
<title>2314&#45;&gt;2134</title>
<path fill="none" stroke="black" d="M315.56,-143.7C304.49,-132.93 290.29,-119.12 279.2,-108.35"/>
</g>
<!-- 2341 -->
<g id="node10" class="node">
<title>2341</title>
<polygon fill="none" stroke="black" points="432.36,-252 378.36,-252 378.36,-216 432.36,-216 432.36,-252"/>
<text xml:space="preserve" text-anchor="middle" x="405.36" y="-229.72" font-family="Times,serif" font-size="12.00">2341</text>
</g>
<!-- 2341&#45;&gt;1342 -->
<g id="edge58" class="edge">
<title>2341&#45;&gt;1342</title>
<path fill="none" stroke="black" d="M378.01,-226.35C322.97,-212.97 199.42,-182.95 144.53,-169.6"/>
</g>
<!-- 2341&#45;&gt;2143 -->
<g id="edge69" class="edge">
<title>2341&#45;&gt;2143</title>
<path fill="none" stroke="black" d="M377.94,-219.67C352.31,-207.21 314.27,-188.72 288.68,-176.28"/>
</g>
<!-- 2341&#45;&gt;2314 -->
<g id="edge76" class="edge">
<title>2341&#45;&gt;2314</title>
<path fill="none" stroke="black" d="M387.56,-215.7C376.49,-204.93 362.29,-191.12 351.2,-180.35"/>
</g>
<!-- 2413 -->
<g id="node11" class="node">
<title>2413</title>
<polygon fill="none" stroke="black" points="288.36,-252 234.36,-252 234.36,-216 288.36,-216 288.36,-252"/>
<text xml:space="preserve" text-anchor="middle" x="261.36" y="-229.72" font-family="Times,serif" font-size="12.00">2413</text>
</g>
<!-- 2413&#45;&gt;1423 -->
<g id="edge29" class="edge">
<title>2413&#45;&gt;1423</title>
<path fill="none" stroke="black" d="M234,-224.13C192.57,-210.71 114.34,-185.35 72.83,-171.9"/>
</g>
<!-- 2413&#45;&gt;2143 -->
<g id="edge26" class="edge">
<title>2413&#45;&gt;2143</title>
<path fill="none" stroke="black" d="M261.36,-215.7C261.36,-204.85 261.36,-190.92 261.36,-180.1"/>
</g>
<!-- 2413&#45;&gt;2314 -->
<g id="edge37" class="edge">
<title>2413&#45;&gt;2314</title>
<path fill="none" stroke="black" d="M279.16,-215.7C290.23,-204.93 304.43,-191.12 315.52,-180.35"/>
</g>
<!-- 2431 -->
<g id="node12" class="node">
<title>2431</title>
<polygon fill="none" stroke="black" points="360.36,-324 306.36,-324 306.36,-288 360.36,-288 360.36,-324"/>
<text xml:space="preserve" text-anchor="middle" x="333.36" y="-301.73" font-family="Times,serif" font-size="12.00">2431</text>
</g>
<!-- 2431&#45;&gt;1432 -->
<g id="edge65" class="edge">
<title>2431&#45;&gt;1432</title>
<path fill="none" stroke="black" d="M306.01,-298.35C250.97,-284.97 127.42,-254.95 72.53,-241.6"/>
</g>
<!-- 2431&#45;&gt;2341 -->
<g id="edge25" class="edge">
<title>2431&#45;&gt;2341</title>
<path fill="none" stroke="black" d="M351.16,-287.7C362.23,-276.93 376.43,-263.12 387.52,-252.35"/>
</g>
<!-- 2431&#45;&gt;2413 -->
<g id="edge72" class="edge">
<title>2431&#45;&gt;2413</title>
<path fill="none" stroke="black" d="M315.56,-287.7C304.49,-276.93 290.29,-263.12 279.2,-252.35"/>
</g>
<!-- 3124 -->
<g id="node13" class="node">
<title>3124</title>
<polygon fill="none" stroke="black" points="216.36,-180 162.36,-180 162.36,-144 216.36,-144 216.36,-180"/>
<text xml:space="preserve" text-anchor="middle" x="189.36" y="-157.72" font-family="Times,serif" font-size="12.00">3124</text>
</g>
<!-- 3124&#45;&gt;1324 -->
<g id="edge31" class="edge">
<title>3124&#45;&gt;1324</title>
<path fill="none" stroke="black" d="M189.36,-143.7C189.36,-132.85 189.36,-118.92 189.36,-108.1"/>
</g>
<!-- 3124&#45;&gt;2134 -->
<g id="edge66" class="edge">
<title>3124&#45;&gt;2134</title>
<path fill="none" stroke="black" d="M207.16,-143.7C218.23,-132.93 232.43,-119.12 243.52,-108.35"/>
</g>
<!-- 3142 -->
<g id="node14" class="node">
<title>3142</title>
<polygon fill="none" stroke="black" points="216.36,-252 162.36,-252 162.36,-216 216.36,-216 216.36,-252"/>
<text xml:space="preserve" text-anchor="middle" x="189.36" y="-229.72" font-family="Times,serif" font-size="12.00">3142</text>
</g>
<!-- 3142&#45;&gt;1342 -->
<g id="edge36" class="edge">
<title>3142&#45;&gt;1342</title>
<path fill="none" stroke="black" d="M171.56,-215.7C160.49,-204.93 146.29,-191.12 135.2,-180.35"/>
</g>
<!-- 3142&#45;&gt;2143 -->
<g id="edge48" class="edge">
<title>3142&#45;&gt;2143</title>
<path fill="none" stroke="black" d="M207.16,-215.7C218.23,-204.93 232.43,-191.12 243.52,-180.35"/>
</g>
<!-- 3142&#45;&gt;3124 -->
<g id="edge43" class="edge">
<title>3142&#45;&gt;3124</title>
<path fill="none" stroke="black" d="M189.36,-215.7C189.36,-204.85 189.36,-190.92 189.36,-180.1"/>
</g>
<!-- 3214 -->
<g id="node15" class="node">
<title>3214</title>
<polygon fill="none" stroke="black" points="360.36,-252 306.36,-252 306.36,-216 360.36,-216 360.36,-252"/>
<text xml:space="preserve" text-anchor="middle" x="333.36" y="-229.72" font-family="Times,serif" font-size="12.00">3214</text>
</g>
<!-- 3214&#45;&gt;2314 -->
<g id="edge35" class="edge">
<title>3214&#45;&gt;2314</title>
<path fill="none" stroke="black" d="M333.36,-215.7C333.36,-204.85 333.36,-190.92 333.36,-180.1"/>
</g>
<!-- 3214&#45;&gt;3124 -->
<g id="edge75" class="edge">
<title>3214&#45;&gt;3124</title>
<path fill="none" stroke="black" d="M305.94,-219.67C280.31,-207.21 242.27,-188.72 216.68,-176.28"/>
</g>
<!-- 3241 -->
<g id="node16" class="node">
<title>3241</title>
<polygon fill="none" stroke="black" points="432.36,-324 378.36,-324 378.36,-288 432.36,-288 432.36,-324"/>
<text xml:space="preserve" text-anchor="middle" x="405.36" y="-301.73" font-family="Times,serif" font-size="12.00">3241</text>
</g>
<!-- 3241&#45;&gt;2341 -->
<g id="edge47" class="edge">
<title>3241&#45;&gt;2341</title>
<path fill="none" stroke="black" d="M405.36,-287.7C405.36,-276.85 405.36,-262.92 405.36,-252.1"/>
</g>
<!-- 3241&#45;&gt;3142 -->
<g id="edge44" class="edge">
<title>3241&#45;&gt;3142</title>
<path fill="none" stroke="black" d="M378,-296.13C336.57,-282.71 258.34,-257.35 216.83,-243.9"/>
</g>
<!-- 3241&#45;&gt;3214 -->
<g id="edge40" class="edge">
<title>3241&#45;&gt;3214</title>
<path fill="none" stroke="black" d="M387.56,-287.7C376.49,-276.93 362.29,-263.12 351.2,-252.35"/>
</g>
<!-- 3412 -->
<g id="node17" class="node">
<title>3412</title>
<polygon fill="none" stroke="black" points="216.36,-324 162.36,-324 162.36,-288 216.36,-288 216.36,-324"/>
<text xml:space="preserve" text-anchor="middle" x="189.36" y="-301.73" font-family="Times,serif" font-size="12.00">3412</text>
</g>
<!-- 3412&#45;&gt;1432 -->
<g id="edge51" class="edge">
<title>3412&#45;&gt;1432</title>
<path fill="none" stroke="black" d="M161.94,-291.67C136.31,-279.21 98.27,-260.72 72.68,-248.28"/>
</g>
<!-- 3412&#45;&gt;2413 -->
<g id="edge61" class="edge">
<title>3412&#45;&gt;2413</title>
<path fill="none" stroke="black" d="M207.16,-287.7C218.23,-276.93 232.43,-263.12 243.52,-252.35"/>
</g>
<!-- 3412&#45;&gt;3142 -->
<g id="edge73" class="edge">
<title>3412&#45;&gt;3142</title>
<path fill="none" stroke="black" d="M189.36,-287.7C189.36,-276.85 189.36,-262.92 189.36,-252.1"/>
</g>
<!-- 3412&#45;&gt;3214 -->
<g id="edge70" class="edge">
<title>3412&#45;&gt;3214</title>
<path fill="none" stroke="black" d="M216.78,-291.67C242.41,-279.21 280.45,-260.72 306.04,-248.28"/>
</g>
<!-- 3421 -->
<g id="node18" class="node">
<title>3421</title>
<polygon fill="none" stroke="black" points="360.36,-396 306.36,-396 306.36,-360 360.36,-360 360.36,-396"/>
<text xml:space="preserve" text-anchor="middle" x="333.36" y="-373.73" font-family="Times,serif" font-size="12.00">3421</text>
</g>
<!-- 3421&#45;&gt;2431 -->
<g id="edge55" class="edge">
<title>3421&#45;&gt;2431</title>
<path fill="none" stroke="black" d="M333.36,-359.7C333.36,-348.85 333.36,-334.92 333.36,-324.1"/>
</g>
<!-- 3421&#45;&gt;3241 -->
<g id="edge41" class="edge">
<title>3421&#45;&gt;3241</title>
<path fill="none" stroke="black" d="M351.16,-359.7C362.23,-348.93 376.43,-335.12 387.52,-324.35"/>
</g>
<!-- 3421&#45;&gt;3412 -->
<g id="edge63" class="edge">
<title>3421&#45;&gt;3412</title>
<path fill="none" stroke="black" d="M305.94,-363.67C280.31,-351.21 242.27,-332.72 216.68,-320.28"/>
</g>
<!-- 4123 -->
<g id="node19" class="node">
<title>4123</title>
<polygon fill="none" stroke="black" points="144.36,-252 90.36,-252 90.36,-216 144.36,-216 144.36,-252"/>
<text xml:space="preserve" text-anchor="middle" x="117.36" y="-229.72" font-family="Times,serif" font-size="12.00">4123</text>
</g>
<!-- 4123&#45;&gt;1423 -->
<g id="edge27" class="edge">
<title>4123&#45;&gt;1423</title>
<path fill="none" stroke="black" d="M99.56,-215.7C88.49,-204.93 74.29,-191.12 63.2,-180.35"/>
</g>
<!-- 4123&#45;&gt;2143 -->
<g id="edge30" class="edge">
<title>4123&#45;&gt;2143</title>
<path fill="none" stroke="black" d="M144.78,-219.67C170.41,-207.21 208.45,-188.72 234.04,-176.28"/>
</g>
<!-- 4123&#45;&gt;3124 -->
<g id="edge80" class="edge">
<title>4123&#45;&gt;3124</title>
<path fill="none" stroke="black" d="M135.16,-215.7C146.23,-204.93 160.43,-191.12 171.52,-180.35"/>
</g>
<!-- 4132 -->
<g id="node20" class="node">
<title>4132</title>
<polygon fill="none" stroke="black" points="144.36,-324 90.36,-324 90.36,-288 144.36,-288 144.36,-324"/>
<text xml:space="preserve" text-anchor="middle" x="117.36" y="-301.73" font-family="Times,serif" font-size="12.00">4132</text>
</g>
<!-- 4132&#45;&gt;1432 -->
<g id="edge46" class="edge">
<title>4132&#45;&gt;1432</title>
<path fill="none" stroke="black" d="M99.56,-287.7C88.49,-276.93 74.29,-263.12 63.2,-252.35"/>
</g>
<!-- 4132&#45;&gt;3142 -->
<g id="edge62" class="edge">
<title>4132&#45;&gt;3142</title>
<path fill="none" stroke="black" d="M135.16,-287.7C146.23,-276.93 160.43,-263.12 171.52,-252.35"/>
</g>
<!-- 4132&#45;&gt;4123 -->
<g id="edge71" class="edge">
<title>4132&#45;&gt;4123</title>
<path fill="none" stroke="black" d="M117.36,-287.7C117.36,-276.85 117.36,-262.92 117.36,-252.1"/>
</g>
<!-- 4213 -->
<g id="node21" class="node">
<title>4213</title>
<polygon fill="none" stroke="black" points="288.36,-324 234.36,-324 234.36,-288 288.36,-288 288.36,-324"/>
<text xml:space="preserve" text-anchor="middle" x="261.36" y="-301.73" font-family="Times,serif" font-size="12.00">4213</text>
</g>
<!-- 4213&#45;&gt;2413 -->
<g id="edge38" class="edge">
<title>4213&#45;&gt;2413</title>
<path fill="none" stroke="black" d="M261.36,-287.7C261.36,-276.85 261.36,-262.92 261.36,-252.1"/>
</g>
<!-- 4213&#45;&gt;3214 -->
<g id="edge45" class="edge">
<title>4213&#45;&gt;3214</title>
<path fill="none" stroke="black" d="M279.16,-287.7C290.23,-276.93 304.43,-263.12 315.52,-252.35"/>
</g>
<!-- 4213&#45;&gt;4123 -->
<g id="edge56" class="edge">
<title>4213&#45;&gt;4123</title>
<path fill="none" stroke="black" d="M233.94,-291.67C208.31,-279.21 170.27,-260.72 144.68,-248.28"/>
</g>
<!-- 4231 -->
<g id="node22" class="node">
<title>4231</title>
<polygon fill="none" stroke="black" points="288.36,-396 234.36,-396 234.36,-360 288.36,-360 288.36,-396"/>
<text xml:space="preserve" text-anchor="middle" x="261.36" y="-373.73" font-family="Times,serif" font-size="12.00">4231</text>
</g>
<!-- 4231&#45;&gt;2431 -->
<g id="edge28" class="edge">
<title>4231&#45;&gt;2431</title>
<path fill="none" stroke="black" d="M279.16,-359.7C290.23,-348.93 304.43,-335.12 315.52,-324.35"/>
</g>
<!-- 4231&#45;&gt;3241 -->
<g id="edge74" class="edge">
<title>4231&#45;&gt;3241</title>
<path fill="none" stroke="black" d="M288.78,-363.67C314.41,-351.21 352.45,-332.72 378.04,-320.28"/>
</g>
<!-- 4231&#45;&gt;4132 -->
<g id="edge77" class="edge">
<title>4231&#45;&gt;4132</title>
<path fill="none" stroke="black" d="M233.94,-363.67C208.31,-351.21 170.27,-332.72 144.68,-320.28"/>
</g>
<!-- 4231&#45;&gt;4213 -->
<g id="edge59" class="edge">
<title>4231&#45;&gt;4213</title>
<path fill="none" stroke="black" d="M261.36,-359.7C261.36,-348.85 261.36,-334.92 261.36,-324.1"/>
</g>
<!-- 4312 -->
<g id="node23" class="node">
<title>4312</title>
<polygon fill="none" stroke="black" points="216.36,-396 162.36,-396 162.36,-360 216.36,-360 216.36,-396"/>
<text xml:space="preserve" text-anchor="middle" x="189.36" y="-373.73" font-family="Times,serif" font-size="12.00">4312</text>
</g>
<!-- 4312&#45;&gt;3412 -->
<g id="edge68" class="edge">
<title>4312&#45;&gt;3412</title>
<path fill="none" stroke="black" d="M189.36,-359.7C189.36,-348.85 189.36,-334.92 189.36,-324.1"/>
</g>
<!-- 4312&#45;&gt;4132 -->
<g id="edge50" class="edge">
<title>4312&#45;&gt;4132</title>
<path fill="none" stroke="black" d="M171.56,-359.7C160.49,-348.93 146.29,-335.12 135.2,-324.35"/>
</g>
<!-- 4312&#45;&gt;4213 -->
<g id="edge34" class="edge">
<title>4312&#45;&gt;4213</title>
<path fill="none" stroke="black" d="M207.16,-359.7C218.23,-348.93 232.43,-335.12 243.52,-324.35"/>
</g>
<!-- 4321 -->
<g id="node24" class="node">
<title>4321</title>
<polygon fill="none" stroke="black" points="288.36,-468 234.36,-468 234.36,-432 288.36,-432 288.36,-468"/>
<text xml:space="preserve" text-anchor="middle" x="261.36" y="-445.73" font-family="Times,serif" font-size="12.00">4321</text>
</g>
<!-- 4321&#45;&gt;3421 -->
<g id="edge67" class="edge">
<title>4321&#45;&gt;3421</title>
<path fill="none" stroke="black" d="M279.16,-431.7C290.23,-420.93 304.43,-407.12 315.52,-396.35"/>
</g>
<!-- 4321&#45;&gt;4231 -->
<g id="edge42" class="edge">
<title>4321&#45;&gt;4231</title>
<path fill="none" stroke="black" d="M261.36,-431.7C261.36,-420.85 261.36,-406.92 261.36,-396.1"/>
</g>
<!-- 4321&#45;&gt;4312 -->
<g id="edge82" class="edge">
<title>4321&#45;&gt;4312</title>
<path fill="none" stroke="black" d="M243.56,-431.7C232.49,-420.93 218.29,-407.12 207.2,-396.35"/>
</g>
<!-- rank_0_center -->
<!-- rank_0_center&#45;&gt;1234 -->
<!-- rank_1_center -->
<!-- rank_1_center&#45;&gt;1243 -->
<!-- rank_1_center&#45;&gt;1324 -->
<!-- rank_1_center&#45;&gt;2134 -->
<!-- rank_2_center -->
<!-- rank_2_center&#45;&gt;1342 -->
<!-- rank_2_center&#45;&gt;1423 -->
<!-- rank_2_center&#45;&gt;2143 -->
<!-- rank_2_center&#45;&gt;2314 -->
<!-- rank_2_center&#45;&gt;3124 -->
<!-- rank_3_center -->
<!-- rank_3_center&#45;&gt;1432 -->
<!-- rank_3_center&#45;&gt;2341 -->
<!-- rank_3_center&#45;&gt;2413 -->
<!-- rank_3_center&#45;&gt;3142 -->
<!-- rank_3_center&#45;&gt;3214 -->
<!-- rank_3_center&#45;&gt;4123 -->
<!-- rank_4_center -->
<!-- rank_4_center&#45;&gt;2431 -->
<!-- rank_4_center&#45;&gt;3241 -->
<!-- rank_4_center&#45;&gt;3412 -->
<!-- rank_4_center&#45;&gt;4132 -->
<!-- rank_4_center&#45;&gt;4213 -->
<!-- rank_5_center -->
<!-- rank_5_center&#45;&gt;3421 -->
<!-- rank_5_center&#45;&gt;4231 -->
<!-- rank_5_center&#45;&gt;4312 -->
<!-- rank_6_center -->
<!-- rank_6_center&#45;&gt;4321 -->
</g>
</svg>
