<?xml version="1.0" encoding="UTF-8" standalone="no"?>
<!DOCTYPE svg PUBLIC "-//W3C//DTD SVG 1.1//EN"
 "http://www.w3.org/Graphics/SVG/1.1/DTD/svg11.dtd">
<!-- Generated by graphviz version 13.1.2 (20250808.2320)
 -->
<!-- Title: WGraph_n3 Pages: 1 -->
<svg width="750pt" height="608pt"
 viewBox="0.00 0.00 750.00 608.00" xmlns="http://www.w3.org/2000/svg" xmlns:xlink="http://www.w3.org/1999/xlink">
<g id="graph0" class="graph" transform="scale(1 1) rotate(0) translate(4 604.25)">
<title>WGraph_n3</title>
<polygon fill="white" stroke="none" points="-4,4 -4,-604.25 746,-604.25 746,4 -4,4"/>
<g id="clust1" class="cluster">
<title>cluster_legend</title>
<polygon fill="none" stroke="black" points="119,-515 119,-592.25 357,-592.25 357,-515 119,-515"/>
<text xml:space="preserve" text-anchor="middle" x="238" y="-576.85" font-family="Times,serif" font-size="12.00">Colored words: blue if i∈β, red if i∉β</text>
</g>
<g id="clust2" class="cluster">
<title>cluster_ell0</title>
<polygon fill="none" stroke="black" stroke-dasharray="5,2" points="434,-515 434,-591.5 504,-591.5 504,-515 434,-515"/>
<text xml:space="preserve" text-anchor="middle" x="469" y="-574.2" font-family="Times,serif" font-size="14.00">ℓ=0</text>
</g>
<g id="clust3" class="cluster">
<title>cluster_ell1</title>
<polygon fill="none" stroke="black" stroke-dasharray="5,2" points="360,-430.5 360,-507 581,-507 581,-430.5 360,-430.5"/>
<text xml:space="preserve" text-anchor="middle" x="470.5" y="-489.7" font-family="Times,serif" font-size="14.00">ℓ=1</text>
</g>
<g id="clust4" class="cluster">
<title>cluster_ell2</title>
<polygon fill="none" stroke="black" stroke-dasharray="5,2" points="211,-346 211,-422.5 657,-422.5 657,-346 211,-346"/>
<text xml:space="preserve" text-anchor="middle" x="434" y="-405.2" font-family="Times,serif" font-size="14.00">ℓ=2</text>
</g>
<g id="clust5" class="cluster">
<title>cluster_ell3</title>
<polygon fill="none" stroke="black" stroke-dasharray="5,2" points="24,-261.5 24,-338 712,-338 712,-261.5 24,-261.5"/>
<text xml:space="preserve" text-anchor="middle" x="368" y="-320.7" font-family="Times,serif" font-size="14.00">ℓ=3</text>
</g>
<g id="clust6" class="cluster">
<title>cluster_ell4</title>
<polygon fill="none" stroke="black" stroke-dasharray="5,2" points="8,-177 8,-253.5 734,-253.5 734,-177 8,-177"/>
<text xml:space="preserve" text-anchor="middle" x="371" y="-236.2" font-family="Times,serif" font-size="14.00">ℓ=4</text>
</g>
<g id="clust7" class="cluster">
<title>cluster_ell5</title>
<polygon fill="none" stroke="black" stroke-dasharray="5,2" points="221,-92.5 221,-169 646,-169 646,-92.5 221,-92.5"/>
<text xml:space="preserve" text-anchor="middle" x="433.5" y="-151.7" font-family="Times,serif" font-size="14.00">ℓ=5</text>
</g>
<g id="clust8" class="cluster">
<title>cluster_ell6</title>
<polygon fill="none" stroke="black" stroke-dasharray="5,2" points="464,-8 464,-84.5 554,-84.5 554,-8 464,-8"/>
<text xml:space="preserve" text-anchor="middle" x="509" y="-67.2" font-family="Times,serif" font-size="14.00">ℓ=6</text>
</g>
<!-- legend_red -->
<g id="node1" class="node">
<title>legend_red</title>
<polygon fill="white" stroke="black" points="224.88,-559 127.12,-559 127.12,-523 224.88,-523 224.88,-559"/>
<text xml:space="preserve" text-anchor="start" x="135.12" y="-538.83" font-family="Courier,monospace" font-size="14.00">i ∉ β: </text>
<text xml:space="preserve" text-anchor="start" x="192.12" y="-538.83" font-family="Courier,monospace" font-size="14.00" fill="red">red</text>
</g>
<!-- legend_blue -->
<g id="node2" class="node">
<title>legend_blue</title>
<polygon fill="white" stroke="black" points="349,-559 243,-559 243,-523 349,-523 349,-559"/>
<text xml:space="preserve" text-anchor="start" x="251" y="-538.83" font-family="Courier,monospace" font-size="14.00">i ∈ β: </text>
<text xml:space="preserve" text-anchor="start" x="308" y="-538.83" font-family="Courier,monospace" font-size="14.00" fill="blue">blue</text>
</g>
<!-- v_123_ -->
<g id="node3" class="node">
<title>v_123_</title>
<polygon fill="white" stroke="black" points="496,-559 442,-559 442,-523 496,-523 496,-559"/>
<text xml:space="preserve" text-anchor="start" x="456.62" y="-542.7" font-family="Courier,monospace" font-size="14.00" fill="red">1</text>
<text xml:space="preserve" text-anchor="start" x="464.88" y="-542.7" font-family="Courier,monospace" font-size="14.00" fill="red">2</text>
<text xml:space="preserve" text-anchor="start" x="473.12" y="-542.7" font-family="Courier,monospace" font-size="14.00" fill="red">3</text>
<text xml:space="preserve" text-anchor="start" x="452.5" y="-528.7" font-family="Courier,monospace" font-size="14.00">τ={}</text>
</g>
<!-- v_123_1 -->
<g id="node4" class="node">
<title>v_123_1</title>
<polygon fill="white" stroke="black" points="422,-474.5 368,-474.5 368,-438.5 422,-438.5 422,-474.5"/>
<text xml:space="preserve" text-anchor="start" x="382.62" y="-458.2" font-family="Courier,monospace" font-size="14.00" fill="blue">1</text>
<text xml:space="preserve" text-anchor="start" x="390.88" y="-458.2" font-family="Courier,monospace" font-size="14.00" fill="red">2</text>
<text xml:space="preserve" text-anchor="start" x="399.12" y="-458.2" font-family="Courier,monospace" font-size="14.00" fill="red">3</text>
<text xml:space="preserve" text-anchor="start" x="378.5" y="-444.2" font-family="Courier,monospace" font-size="14.00">τ={}</text>
</g>
<!-- v_123_&#45;&gt;v_123_1 -->
<g id="edge1" class="edge">
<title>v_123_&#45;&gt;v_123_1</title>
<path fill="none" stroke="black" d="M447.31,-522.65C441.76,-517.82 435.96,-512.41 431,-507 424.54,-499.95 418.17,-491.74 412.63,-484.06"/>
<polygon fill="black" stroke="black" points="415.57,-482.16 406.97,-475.97 409.83,-486.17 415.57,-482.16"/>
</g>
<!-- v_132_ -->
<g id="node5" class="node">
<title>v_132_</title>
<polygon fill="white" stroke="black" points="572.62,-474.5 515.38,-474.5 515.38,-438.5 572.62,-438.5 572.62,-474.5"/>
<text xml:space="preserve" text-anchor="start" x="531.62" y="-458.2" font-family="Courier,monospace" font-size="14.00" fill="red">1</text>
<text xml:space="preserve" text-anchor="start" x="539.88" y="-458.2" font-family="Courier,monospace" font-size="14.00" fill="red">3</text>
<text xml:space="preserve" text-anchor="start" x="548.12" y="-458.2" font-family="Courier,monospace" font-size="14.00" fill="red">2</text>
<text xml:space="preserve" text-anchor="start" x="523.38" y="-444.2" font-family="Courier,monospace" font-size="14.00">τ={2}</text>
</g>
<!-- v_123_&#45;&gt;v_132_ -->
<g id="edge2" class="edge">
<title>v_123_&#45;&gt;v_132_</title>
<path fill="none" stroke="black" d="M490.64,-522.61C496.19,-517.78 502,-512.38 507,-507 513.57,-499.93 520.1,-491.71 525.8,-484.03"/>
<polygon fill="black" stroke="black" points="528.62,-486.09 531.63,-475.93 522.94,-482 528.62,-486.09"/>
</g>
<!-- v_213_ -->
<g id="node6" class="node">
<title>v_213_</title>
<polygon fill="white" stroke="black" points="497.62,-474.5 440.38,-474.5 440.38,-438.5 497.62,-438.5 497.62,-474.5"/>
<text xml:space="preserve" text-anchor="start" x="456.62" y="-458.2" font-family="Courier,monospace" font-size="14.00" fill="red">2</text>
<text xml:space="preserve" text-anchor="start" x="464.88" y="-458.2" font-family="Courier,monospace" font-size="14.00" fill="red">1</text>
<text xml:space="preserve" text-anchor="start" x="473.12" y="-458.2" font-family="Courier,monospace" font-size="14.00" fill="red">3</text>
<text xml:space="preserve" text-anchor="start" x="448.38" y="-444.2" font-family="Courier,monospace" font-size="14.00">τ={1}</text>
</g>
<!-- v_123_&#45;&gt;v_213_ -->
<g id="edge5" class="edge">
<title>v_123_&#45;&gt;v_213_</title>
<path fill="none" stroke="black" d="M469,-522.5C469,-512 469,-498.39 469,-486.33"/>
<polygon fill="black" stroke="black" points="472.5,-486.48 469,-476.48 465.5,-486.48 472.5,-486.48"/>
</g>
<!-- v_132_1 -->
<g id="node8" class="node">
<title>v_132_1</title>
<polygon fill="white" stroke="black" points="498.62,-390 441.38,-390 441.38,-354 498.62,-354 498.62,-390"/>
<text xml:space="preserve" text-anchor="start" x="457.62" y="-373.7" font-family="Courier,monospace" font-size="14.00" fill="blue">1</text>
<text xml:space="preserve" text-anchor="start" x="465.88" y="-373.7" font-family="Courier,monospace" font-size="14.00" fill="red">3</text>
<text xml:space="preserve" text-anchor="start" x="474.12" y="-373.7" font-family="Courier,monospace" font-size="14.00" fill="red">2</text>
<text xml:space="preserve" text-anchor="start" x="449.38" y="-359.7" font-family="Courier,monospace" font-size="14.00">τ={2}</text>
</g>
<!-- v_123_1&#45;&gt;v_132_1 -->
<g id="edge4" class="edge">
<title>v_123_1&#45;&gt;v_132_1</title>
<path fill="none" stroke="black" d="M416.64,-438.11C422.19,-433.28 428,-427.88 433,-422.5 439.57,-415.43 446.1,-407.21 451.8,-399.53"/>
<polygon fill="black" stroke="black" points="454.62,-401.59 457.63,-391.43 448.94,-397.5 454.62,-401.59"/>
</g>
<!-- v_213_1 -->
<g id="node9" class="node">
<title>v_213_1</title>
<polygon fill="white" stroke="black" points="348.62,-390 291.38,-390 291.38,-354 348.62,-354 348.62,-390"/>
<text xml:space="preserve" text-anchor="start" x="307.62" y="-373.7" font-family="Courier,monospace" font-size="14.00" fill="blue">2</text>
<text xml:space="preserve" text-anchor="start" x="315.88" y="-373.7" font-family="Courier,monospace" font-size="14.00" fill="red">1</text>
<text xml:space="preserve" text-anchor="start" x="324.12" y="-373.7" font-family="Courier,monospace" font-size="14.00" fill="red">3</text>
<text xml:space="preserve" text-anchor="start" x="299.38" y="-359.7" font-family="Courier,monospace" font-size="14.00">τ={1}</text>
</g>
<!-- v_123_1&#45;&gt;v_213_1 -->
<g id="edge6" class="edge">
<title>v_123_1&#45;&gt;v_213_1</title>
<path fill="none" stroke="black" d="M373.36,-438.11C367.81,-433.28 362,-427.88 357,-422.5 350.43,-415.43 343.9,-407.21 338.2,-399.53"/>
<polygon fill="black" stroke="black" points="341.06,-397.5 332.37,-391.43 335.38,-401.59 341.06,-397.5"/>
</g>
<!-- v_213_2 -->
<g id="node10" class="node">
<title>v_213_2</title>
<polygon fill="white" stroke="black" points="423.62,-390 366.38,-390 366.38,-354 423.62,-354 423.62,-390"/>
<text xml:space="preserve" text-anchor="start" x="382.62" y="-373.7" font-family="Courier,monospace" font-size="14.00" fill="red">2</text>
<text xml:space="preserve" text-anchor="start" x="390.88" y="-373.7" font-family="Courier,monospace" font-size="14.00" fill="blue">1</text>
<text xml:space="preserve" text-anchor="start" x="399.12" y="-373.7" font-family="Courier,monospace" font-size="14.00" fill="red">3</text>
<text xml:space="preserve" text-anchor="start" x="374.38" y="-359.7" font-family="Courier,monospace" font-size="14.00">τ={1}</text>
</g>
<!-- v_123_1&#45;&gt;v_213_2 -->
<g id="edge8" class="edge">
<title>v_123_1&#45;&gt;v_213_2</title>
<path fill="none" stroke="black" d="M395,-438C395,-427.5 395,-413.89 395,-401.83"/>
<polygon fill="black" stroke="black" points="398.5,-401.98 395,-391.98 391.5,-401.98 398.5,-401.98"/>
</g>
<!-- v_132_&#45;&gt;v_132_1 -->
<g id="edge3" class="edge">
<title>v_132_&#45;&gt;v_132_1</title>
<path fill="none" stroke="black" d="M522.95,-438.04C517.55,-433.21 511.89,-427.83 507,-422.5 500.47,-415.38 493.96,-407.15 488.26,-399.47"/>
<polygon fill="black" stroke="black" points="491.12,-397.44 482.42,-391.39 485.44,-401.54 491.12,-397.44"/>
</g>
<!-- v_231_ -->
<g id="node11" class="node">
<title>v_231_</title>
<polygon fill="white" stroke="black" points="573.62,-390 516.38,-390 516.38,-354 573.62,-354 573.62,-390"/>
<text xml:space="preserve" text-anchor="start" x="532.62" y="-373.7" font-family="Courier,monospace" font-size="14.00" fill="red">2</text>
<text xml:space="preserve" text-anchor="start" x="540.88" y="-373.7" font-family="Courier,monospace" font-size="14.00" fill="red">3</text>
<text xml:space="preserve" text-anchor="start" x="549.12" y="-373.7" font-family="Courier,monospace" font-size="14.00" fill="red">1</text>
<text xml:space="preserve" text-anchor="start" x="524.38" y="-359.7" font-family="Courier,monospace" font-size="14.00">τ={2}</text>
</g>
<!-- v_132_&#45;&gt;v_231_ -->
<g id="edge12" class="edge">
<title>v_132_&#45;&gt;v_231_</title>
<path fill="none" stroke="black" d="M544.21,-438C544.34,-427.5 544.5,-413.89 544.65,-401.83"/>
<polygon fill="black" stroke="black" points="548.15,-402.03 544.77,-391.98 541.15,-401.94 548.15,-402.03"/>
</g>
<!-- v_312_ -->
<g id="node12" class="node">
<title>v_312_</title>
<polygon fill="white" stroke="black" points="648.62,-390 591.38,-390 591.38,-354 648.62,-354 648.62,-390"/>
<text xml:space="preserve" text-anchor="start" x="607.62" y="-373.7" font-family="Courier,monospace" font-size="14.00" fill="red">3</text>
<text xml:space="preserve" text-anchor="start" x="615.88" y="-373.7" font-family="Courier,monospace" font-size="14.00" fill="red">1</text>
<text xml:space="preserve" text-anchor="start" x="624.12" y="-373.7" font-family="Courier,monospace" font-size="14.00" fill="red">2</text>
<text xml:space="preserve" text-anchor="start" x="599.38" y="-359.7" font-family="Courier,monospace" font-size="14.00">τ={1}</text>
</g>
<!-- v_132_&#45;&gt;v_312_ -->
<g id="edge23" class="edge">
<title>v_132_&#45;&gt;v_312_</title>
<path fill="none" stroke="black" d="M566.24,-438.17C571.94,-433.34 577.89,-427.92 583,-422.5 589.62,-415.47 596.16,-407.26 601.85,-399.58"/>
<polygon fill="black" stroke="black" points="604.68,-401.64 607.68,-391.48 599,-397.56 604.68,-401.64"/>
</g>
<!-- v_213_&#45;&gt;v_213_1 -->
<g id="edge7" class="edge">
<title>v_213_&#45;&gt;v_213_1</title>
<path fill="none" stroke="black" d="M446.21,-438.04C441.4,-435.08 436.2,-432.37 431,-430.5 399.87,-419.32 385.74,-438.89 357,-422.5 347.66,-417.17 339.95,-408.42 334.04,-399.75"/>
<polygon fill="black" stroke="black" points="337.16,-398.14 328.93,-391.47 331.21,-401.82 337.16,-398.14"/>
</g>
<!-- v_213_&#45;&gt;v_213_2 -->
<g id="edge9" class="edge">
<title>v_213_&#45;&gt;v_213_2</title>
<path fill="none" stroke="black" d="M447.95,-438.04C442.55,-433.21 436.89,-427.83 432,-422.5 425.47,-415.38 418.96,-407.15 413.26,-399.47"/>
<polygon fill="black" stroke="black" points="416.12,-397.44 407.42,-391.39 410.44,-401.54 416.12,-397.44"/>
</g>
<!-- v_213_&#45;&gt;v_231_ -->
<g id="edge13" class="edge">
<title>v_213_&#45;&gt;v_231_</title>
<path fill="none" stroke="black" d="M491.24,-438.17C496.94,-433.34 502.89,-427.92 508,-422.5 514.62,-415.47 521.16,-407.26 526.85,-399.58"/>
<polygon fill="black" stroke="black" points="529.68,-401.64 532.68,-391.48 524,-397.56 529.68,-401.64"/>
</g>
<!-- v_213_&#45;&gt;v_312_ -->
<g id="edge24" class="edge">
<title>v_213_&#45;&gt;v_312_</title>
<path fill="none" stroke="black" d="M491.14,-438.02C495.82,-435.06 500.9,-432.36 506,-430.5 538.33,-418.74 553.08,-439.48 583,-422.5 592.36,-417.19 600.06,-408.45 605.97,-399.77"/>
<polygon fill="black" stroke="black" points="608.81,-401.83 611.08,-391.49 602.85,-398.16 608.81,-401.83"/>
</g>
<!-- v_123_12 -->
<g id="node7" class="node">
<title>v_123_12</title>
<polygon fill="white" stroke="black" points="273,-390 219,-390 219,-354 273,-354 273,-390"/>
<text xml:space="preserve" text-anchor="start" x="233.62" y="-373.7" font-family="Courier,monospace" font-size="14.00" fill="blue">1</text>
<text xml:space="preserve" text-anchor="start" x="241.88" y="-373.7" font-family="Courier,monospace" font-size="14.00" fill="blue">2</text>
<text xml:space="preserve" text-anchor="start" x="250.12" y="-373.7" font-family="Courier,monospace" font-size="14.00" fill="red">3</text>
<text xml:space="preserve" text-anchor="start" x="229.5" y="-359.7" font-family="Courier,monospace" font-size="14.00">τ={}</text>
</g>
<!-- v_231_1 -->
<g id="node17" class="node">
<title>v_231_1</title>
<polygon fill="white" stroke="black" points="386.62,-305.5 329.38,-305.5 329.38,-269.5 386.62,-269.5 386.62,-305.5"/>
<text xml:space="preserve" text-anchor="start" x="345.62" y="-289.2" font-family="Courier,monospace" font-size="14.00" fill="blue">2</text>
<text xml:space="preserve" text-anchor="start" x="353.88" y="-289.2" font-family="Courier,monospace" font-size="14.00" fill="red">3</text>
<text xml:space="preserve" text-anchor="start" x="362.12" y="-289.2" font-family="Courier,monospace" font-size="14.00" fill="red">1</text>
<text xml:space="preserve" text-anchor="start" x="337.38" y="-275.2" font-family="Courier,monospace" font-size="14.00">τ={2}</text>
</g>
<!-- v_132_1&#45;&gt;v_231_1 -->
<g id="edge16" class="edge">
<title>v_132_1&#45;&gt;v_231_1</title>
<path fill="none" stroke="black" d="M447.3,-353.68C442.74,-350.79 437.85,-348.06 433,-346 417.11,-339.27 409.55,-347.29 395,-338 386.16,-332.36 378.68,-323.81 372.8,-315.39"/>
<polygon fill="black" stroke="black" points="375.8,-313.58 367.47,-307.03 369.9,-317.35 375.8,-313.58"/>
</g>
<!-- v_231_3 -->
<g id="node18" class="node">
<title>v_231_3</title>
<polygon fill="white" stroke="black" points="461.62,-305.5 404.38,-305.5 404.38,-269.5 461.62,-269.5 461.62,-305.5"/>
<text xml:space="preserve" text-anchor="start" x="420.62" y="-289.2" font-family="Courier,monospace" font-size="14.00" fill="red">2</text>
<text xml:space="preserve" text-anchor="start" x="428.88" y="-289.2" font-family="Courier,monospace" font-size="14.00" fill="red">3</text>
<text xml:space="preserve" text-anchor="start" x="437.12" y="-289.2" font-family="Courier,monospace" font-size="14.00" fill="blue">1</text>
<text xml:space="preserve" text-anchor="start" x="412.38" y="-275.2" font-family="Courier,monospace" font-size="14.00">τ={2}</text>
</g>
<!-- v_132_1&#45;&gt;v_231_3 -->
<g id="edge19" class="edge">
<title>v_132_1&#45;&gt;v_231_3</title>
<path fill="none" stroke="black" d="M462.15,-353.5C457.3,-342.68 450.95,-328.53 445.43,-316.21"/>
<polygon fill="black" stroke="black" points="448.74,-315.04 441.45,-307.35 442.35,-317.91 448.74,-315.04"/>
</g>
<!-- v_312_1 -->
<g id="node19" class="node">
<title>v_312_1</title>
<polygon fill="white" stroke="black" points="536.62,-305.5 479.38,-305.5 479.38,-269.5 536.62,-269.5 536.62,-305.5"/>
<text xml:space="preserve" text-anchor="start" x="495.62" y="-289.2" font-family="Courier,monospace" font-size="14.00" fill="blue">3</text>
<text xml:space="preserve" text-anchor="start" x="503.88" y="-289.2" font-family="Courier,monospace" font-size="14.00" fill="red">1</text>
<text xml:space="preserve" text-anchor="start" x="512.12" y="-289.2" font-family="Courier,monospace" font-size="14.00" fill="red">2</text>
<text xml:space="preserve" text-anchor="start" x="487.38" y="-275.2" font-family="Courier,monospace" font-size="14.00">τ={1}</text>
</g>
<!-- v_132_1&#45;&gt;v_312_1 -->
<g id="edge27" class="edge">
<title>v_132_1&#45;&gt;v_312_1</title>
<path fill="none" stroke="black" d="M478.06,-353.5C483.05,-342.68 489.56,-328.53 495.24,-316.21"/>
<polygon fill="black" stroke="black" points="498.31,-317.89 499.32,-307.35 491.96,-314.96 498.31,-317.89"/>
</g>
<!-- v_312_2 -->
<g id="node20" class="node">
<title>v_312_2</title>
<polygon fill="white" stroke="black" points="611.62,-305.5 554.38,-305.5 554.38,-269.5 611.62,-269.5 611.62,-305.5"/>
<text xml:space="preserve" text-anchor="start" x="570.62" y="-289.2" font-family="Courier,monospace" font-size="14.00" fill="red">3</text>
<text xml:space="preserve" text-anchor="start" x="578.88" y="-289.2" font-family="Courier,monospace" font-size="14.00" fill="blue">1</text>
<text xml:space="preserve" text-anchor="start" x="587.12" y="-289.2" font-family="Courier,monospace" font-size="14.00" fill="red">2</text>
<text xml:space="preserve" text-anchor="start" x="562.38" y="-275.2" font-family="Courier,monospace" font-size="14.00">τ={1}</text>
</g>
<!-- v_132_1&#45;&gt;v_312_2 -->
<g id="edge30" class="edge">
<title>v_132_1&#45;&gt;v_312_2</title>
<path fill="none" stroke="black" d="M492.69,-353.66C497.25,-350.77 502.14,-348.04 507,-346 523.31,-339.14 531.06,-347.48 546,-338 554.85,-332.38 562.34,-323.83 568.21,-315.42"/>
<polygon fill="black" stroke="black" points="571.12,-317.37 573.54,-307.05 565.22,-313.61 571.12,-317.37"/>
</g>
<!-- v_213_12 -->
<g id="node16" class="node">
<title>v_213_12</title>
<polygon fill="white" stroke="black" points="311.62,-305.5 254.38,-305.5 254.38,-269.5 311.62,-269.5 311.62,-305.5"/>
<text xml:space="preserve" text-anchor="start" x="270.62" y="-289.2" font-family="Courier,monospace" font-size="14.00" fill="blue">2</text>
<text xml:space="preserve" text-anchor="start" x="278.88" y="-289.2" font-family="Courier,monospace" font-size="14.00" fill="blue">1</text>
<text xml:space="preserve" text-anchor="start" x="287.12" y="-289.2" font-family="Courier,monospace" font-size="14.00" fill="red">3</text>
<text xml:space="preserve" text-anchor="start" x="262.38" y="-275.2" font-family="Courier,monospace" font-size="14.00">τ={1}</text>
</g>
<!-- v_213_1&#45;&gt;v_213_12 -->
<g id="edge11" class="edge">
<title>v_213_1&#45;&gt;v_213_12</title>
<path fill="none" stroke="black" d="M312.15,-353.5C307.3,-342.68 300.95,-328.53 295.43,-316.21"/>
<polygon fill="black" stroke="black" points="298.74,-315.04 291.45,-307.35 292.35,-317.91 298.74,-315.04"/>
</g>
<!-- v_213_1&#45;&gt;v_231_1 -->
<g id="edge15" class="edge">
<title>v_213_1&#45;&gt;v_231_1</title>
<path fill="none" stroke="black" d="M328.06,-353.5C333.05,-342.68 339.56,-328.53 345.24,-316.21"/>
<polygon fill="black" stroke="black" points="348.31,-317.89 349.32,-307.35 341.96,-314.96 348.31,-317.89"/>
</g>
<!-- v_213_1&#45;&gt;v_312_1 -->
<g id="edge26" class="edge">
<title>v_213_1&#45;&gt;v_312_1</title>
<path fill="none" stroke="black" d="M341.69,-353.64C346.49,-350.59 351.72,-347.82 357,-346 381.01,-337.72 448.71,-350.16 471,-338 480.44,-332.85 488.17,-324.14 494.07,-315.45"/>
<polygon fill="black" stroke="black" points="496.92,-317.48 499.16,-307.13 490.95,-313.83 496.92,-317.48"/>
</g>
<!-- v_213_2&#45;&gt;v_213_12 -->
<g id="edge10" class="edge">
<title>v_213_2&#45;&gt;v_213_12</title>
<path fill="none" stroke="black" d="M372.3,-353.68C367.74,-350.79 362.85,-348.06 358,-346 342.11,-339.27 334.55,-347.29 320,-338 311.16,-332.36 303.68,-323.81 297.8,-315.39"/>
<polygon fill="black" stroke="black" points="300.8,-313.58 292.47,-307.03 294.9,-317.35 300.8,-313.58"/>
</g>
<!-- v_213_2&#45;&gt;v_231_3 -->
<g id="edge17" class="edge">
<title>v_213_2&#45;&gt;v_231_3</title>
<path fill="none" stroke="black" d="M403.06,-353.5C408.05,-342.68 414.56,-328.53 420.24,-316.21"/>
<polygon fill="black" stroke="black" points="423.31,-317.89 424.32,-307.35 416.96,-314.96 423.31,-317.89"/>
</g>
<!-- v_213_2&#45;&gt;v_312_2 -->
<g id="edge28" class="edge">
<title>v_213_2&#45;&gt;v_312_2</title>
<path fill="none" stroke="black" d="M416.69,-353.64C421.49,-350.59 426.72,-347.82 432,-346 456.01,-337.72 523.71,-350.16 546,-338 555.44,-332.85 563.17,-324.14 569.07,-315.45"/>
<polygon fill="black" stroke="black" points="571.92,-317.48 574.16,-307.13 565.95,-313.83 571.92,-317.48"/>
</g>
<!-- v_231_&#45;&gt;v_231_1 -->
<g id="edge14" class="edge">
<title>v_231_&#45;&gt;v_231_1</title>
<path fill="none" stroke="black" d="M523.31,-353.64C518.51,-350.6 513.28,-347.82 508,-346 484.2,-337.78 417.09,-350.06 395,-338 385.56,-332.84 377.84,-324.13 371.94,-315.44"/>
<polygon fill="black" stroke="black" points="375.05,-313.83 366.84,-307.12 369.08,-317.48 375.05,-313.83"/>
</g>
<!-- v_231_&#45;&gt;v_231_3 -->
<g id="edge18" class="edge">
<title>v_231_&#45;&gt;v_231_3</title>
<path fill="none" stroke="black" d="M522.3,-353.68C517.74,-350.79 512.85,-348.06 508,-346 492.11,-339.27 484.55,-347.29 470,-338 461.16,-332.36 453.68,-323.81 447.8,-315.39"/>
<polygon fill="black" stroke="black" points="450.8,-313.58 442.47,-307.03 444.9,-317.35 450.8,-313.58"/>
</g>
<!-- v_321_ -->
<g id="node21" class="node">
<title>v_321_</title>
<polygon fill="white" stroke="black" points="703.88,-305.5 630.12,-305.5 630.12,-269.5 703.88,-269.5 703.88,-305.5"/>
<text xml:space="preserve" text-anchor="start" x="654.62" y="-289.2" font-family="Courier,monospace" font-size="14.00" fill="red">3</text>
<text xml:space="preserve" text-anchor="start" x="662.88" y="-289.2" font-family="Courier,monospace" font-size="14.00" fill="red">2</text>
<text xml:space="preserve" text-anchor="start" x="671.12" y="-289.2" font-family="Courier,monospace" font-size="14.00" fill="red">1</text>
<text xml:space="preserve" text-anchor="start" x="638.12" y="-275.2" font-family="Courier,monospace" font-size="14.00">τ={1,2}</text>
</g>
<!-- v_231_&#45;&gt;v_321_ -->
<g id="edge34" class="edge">
<title>v_231_&#45;&gt;v_321_</title>
<path fill="none" stroke="black" d="M567.69,-353.66C572.25,-350.77 577.14,-348.04 582,-346 598.31,-339.14 605.58,-346.67 621,-338 631.32,-332.2 640.66,-323.27 648.18,-314.59"/>
<polygon fill="black" stroke="black" points="650.79,-316.93 654.37,-306.95 645.35,-312.52 650.79,-316.93"/>
</g>
<!-- v_312_&#45;&gt;v_312_1 -->
<g id="edge25" class="edge">
<title>v_312_&#45;&gt;v_312_1</title>
<path fill="none" stroke="black" d="M597.3,-353.68C592.74,-350.79 587.85,-348.06 583,-346 567.11,-339.27 559.55,-347.29 545,-338 536.16,-332.36 528.68,-323.81 522.8,-315.39"/>
<polygon fill="black" stroke="black" points="525.8,-313.58 517.47,-307.03 519.9,-317.35 525.8,-313.58"/>
</g>
<!-- v_312_&#45;&gt;v_312_2 -->
<g id="edge29" class="edge">
<title>v_312_&#45;&gt;v_312_2</title>
<path fill="none" stroke="black" d="M612.15,-353.5C607.3,-342.68 600.95,-328.53 595.43,-316.21"/>
<polygon fill="black" stroke="black" points="598.74,-315.04 591.45,-307.35 592.35,-317.91 598.74,-315.04"/>
</g>
<!-- v_312_&#45;&gt;v_321_ -->
<g id="edge35" class="edge">
<title>v_312_&#45;&gt;v_321_</title>
<path fill="none" stroke="black" d="M629.97,-353.5C636.2,-342.57 644.36,-328.25 651.43,-315.83"/>
<polygon fill="black" stroke="black" points="654.39,-317.71 656.3,-307.29 648.31,-314.24 654.39,-317.71"/>
</g>
<!-- v_123_123 -->
<g id="node13" class="node">
<title>v_123_123</title>
<polygon fill="white" stroke="black" points="86,-305.5 32,-305.5 32,-269.5 86,-269.5 86,-305.5"/>
<text xml:space="preserve" text-anchor="start" x="46.62" y="-289.2" font-family="Courier,monospace" font-size="14.00" fill="blue">1</text>
<text xml:space="preserve" text-anchor="start" x="54.88" y="-289.2" font-family="Courier,monospace" font-size="14.00" fill="blue">2</text>
<text xml:space="preserve" text-anchor="start" x="63.12" y="-289.2" font-family="Courier,monospace" font-size="14.00" fill="blue">3</text>
<text xml:space="preserve" text-anchor="start" x="42.5" y="-275.2" font-family="Courier,monospace" font-size="14.00">τ={}</text>
</g>
<!-- v_132_12 -->
<g id="node14" class="node">
<title>v_132_12</title>
<polygon fill="white" stroke="black" points="161.62,-305.5 104.38,-305.5 104.38,-269.5 161.62,-269.5 161.62,-305.5"/>
<text xml:space="preserve" text-anchor="start" x="120.62" y="-289.2" font-family="Courier,monospace" font-size="14.00" fill="blue">1</text>
<text xml:space="preserve" text-anchor="start" x="128.88" y="-289.2" font-family="Courier,monospace" font-size="14.00" fill="blue">3</text>
<text xml:space="preserve" text-anchor="start" x="137.12" y="-289.2" font-family="Courier,monospace" font-size="14.00" fill="red">2</text>
<text xml:space="preserve" text-anchor="start" x="112.38" y="-275.2" font-family="Courier,monospace" font-size="14.00">τ={2}</text>
</g>
<!-- v_132_13 -->
<g id="node15" class="node">
<title>v_132_13</title>
<polygon fill="white" stroke="black" points="236.62,-305.5 179.38,-305.5 179.38,-269.5 236.62,-269.5 236.62,-305.5"/>
<text xml:space="preserve" text-anchor="start" x="195.62" y="-289.2" font-family="Courier,monospace" font-size="14.00" fill="blue">1</text>
<text xml:space="preserve" text-anchor="start" x="203.88" y="-289.2" font-family="Courier,monospace" font-size="14.00" fill="red">3</text>
<text xml:space="preserve" text-anchor="start" x="212.12" y="-289.2" font-family="Courier,monospace" font-size="14.00" fill="blue">2</text>
<text xml:space="preserve" text-anchor="start" x="187.38" y="-275.2" font-family="Courier,monospace" font-size="14.00">τ={2}</text>
</g>
<!-- v_231_13 -->
<g id="node25" class="node">
<title>v_231_13</title>
<polygon fill="white" stroke="black" points="298.62,-221 241.38,-221 241.38,-185 298.62,-185 298.62,-221"/>
<text xml:space="preserve" text-anchor="start" x="257.62" y="-204.7" font-family="Courier,monospace" font-size="14.00" fill="blue">2</text>
<text xml:space="preserve" text-anchor="start" x="265.88" y="-204.7" font-family="Courier,monospace" font-size="14.00" fill="red">3</text>
<text xml:space="preserve" text-anchor="start" x="274.12" y="-204.7" font-family="Courier,monospace" font-size="14.00" fill="blue">1</text>
<text xml:space="preserve" text-anchor="start" x="249.38" y="-190.7" font-family="Courier,monospace" font-size="14.00">τ={2}</text>
</g>
<!-- v_213_12&#45;&gt;v_231_13 -->
<g id="edge21" class="edge">
<title>v_213_12&#45;&gt;v_231_13</title>
<path fill="none" stroke="black" d="M280.24,-269C278.59,-258.5 276.44,-244.89 274.54,-232.83"/>
<polygon fill="black" stroke="black" points="278,-232.3 272.99,-222.97 271.09,-233.39 278,-232.3"/>
</g>
<!-- v_312_12 -->
<g id="node26" class="node">
<title>v_312_12</title>
<polygon fill="white" stroke="black" points="541.62,-221 484.38,-221 484.38,-185 541.62,-185 541.62,-221"/>
<text xml:space="preserve" text-anchor="start" x="500.62" y="-204.7" font-family="Courier,monospace" font-size="14.00" fill="blue">3</text>
<text xml:space="preserve" text-anchor="start" x="508.88" y="-204.7" font-family="Courier,monospace" font-size="14.00" fill="blue">1</text>
<text xml:space="preserve" text-anchor="start" x="517.12" y="-204.7" font-family="Courier,monospace" font-size="14.00" fill="red">2</text>
<text xml:space="preserve" text-anchor="start" x="492.38" y="-190.7" font-family="Courier,monospace" font-size="14.00">τ={1}</text>
</g>
<!-- v_213_12&#45;&gt;v_312_12 -->
<g id="edge32" class="edge">
<title>v_213_12&#45;&gt;v_312_12</title>
<path fill="none" stroke="black" d="M304.66,-269.06C309.46,-266.02 314.71,-263.27 320,-261.5 352.92,-250.49 445.37,-269.84 476,-253.5 485.49,-248.44 493.22,-239.75 499.12,-231.05"/>
<polygon fill="black" stroke="black" points="501.99,-233.07 504.2,-222.71 496.01,-229.42 501.99,-233.07"/>
</g>
<!-- v_321_2 -->
<g id="node29" class="node">
<title>v_321_2</title>
<polygon fill="white" stroke="black" points="633.88,-221 560.12,-221 560.12,-185 633.88,-185 633.88,-221"/>
<text xml:space="preserve" text-anchor="start" x="584.62" y="-204.7" font-family="Courier,monospace" font-size="14.00" fill="red">3</text>
<text xml:space="preserve" text-anchor="start" x="592.88" y="-204.7" font-family="Courier,monospace" font-size="14.00" fill="blue">2</text>
<text xml:space="preserve" text-anchor="start" x="601.12" y="-204.7" font-family="Courier,monospace" font-size="14.00" fill="red">1</text>
<text xml:space="preserve" text-anchor="start" x="568.12" y="-190.7" font-family="Courier,monospace" font-size="14.00">τ={1,2}</text>
</g>
<!-- v_213_12&#45;&gt;v_321_2 -->
<g id="edge41" class="edge">
<title>v_213_12&#45;&gt;v_321_2</title>
<path fill="none" stroke="black" d="M304.24,-269.25C309.15,-266.11 314.54,-263.27 320,-261.5 344.42,-253.56 527.64,-264.17 551,-253.5 562.21,-248.38 571.96,-239.14 579.56,-230.01"/>
<polygon fill="black" stroke="black" points="582.19,-232.34 585.51,-222.28 576.64,-228.07 582.19,-232.34"/>
</g>
<!-- v_231_1&#45;&gt;v_231_13 -->
<g id="edge22" class="edge">
<title>v_231_1&#45;&gt;v_231_13</title>
<path fill="none" stroke="black" d="M332.62,-269.14C328.74,-266.55 324.78,-263.94 321,-261.5 315.3,-257.82 313.04,-258.04 308,-253.5 300.56,-246.79 293.54,-238.48 287.61,-230.59"/>
<polygon fill="black" stroke="black" points="290.51,-228.63 281.84,-222.54 284.82,-232.71 290.51,-228.63"/>
</g>
<!-- v_321_1 -->
<g id="node28" class="node">
<title>v_321_1</title>
<polygon fill="white" stroke="black" points="390.88,-221 317.12,-221 317.12,-185 390.88,-185 390.88,-221"/>
<text xml:space="preserve" text-anchor="start" x="341.62" y="-204.7" font-family="Courier,monospace" font-size="14.00" fill="blue">3</text>
<text xml:space="preserve" text-anchor="start" x="349.88" y="-204.7" font-family="Courier,monospace" font-size="14.00" fill="red">2</text>
<text xml:space="preserve" text-anchor="start" x="358.12" y="-204.7" font-family="Courier,monospace" font-size="14.00" fill="red">1</text>
<text xml:space="preserve" text-anchor="start" x="325.12" y="-190.7" font-family="Courier,monospace" font-size="14.00">τ={1,2}</text>
</g>
<!-- v_231_1&#45;&gt;v_321_1 -->
<g id="edge37" class="edge">
<title>v_231_1&#45;&gt;v_321_1</title>
<path fill="none" stroke="black" d="M357.15,-269C356.64,-258.5 355.98,-244.89 355.4,-232.83"/>
<polygon fill="black" stroke="black" points="358.9,-232.8 354.92,-222.98 351.91,-233.14 358.9,-232.8"/>
</g>
<!-- v_231_1&#45;&gt;v_321_2 -->
<g id="edge42" class="edge">
<title>v_231_1&#45;&gt;v_321_2</title>
<path fill="none" stroke="black" d="M379.66,-269.06C384.46,-266.02 389.71,-263.27 395,-261.5 427.92,-250.49 519.54,-268.18 551,-253.5 562,-248.37 571.63,-239.29 579.19,-230.3"/>
<polygon fill="black" stroke="black" points="581.74,-232.73 585.11,-222.69 576.21,-228.43 581.74,-232.73"/>
</g>
<!-- v_231_3&#45;&gt;v_231_13 -->
<g id="edge20" class="edge">
<title>v_231_3&#45;&gt;v_231_13</title>
<path fill="none" stroke="black" d="M411.28,-269.23C406.48,-266.17 401.26,-263.37 396,-261.5 359.01,-248.31 342.4,-272.44 308,-253.5 298.48,-248.26 290.59,-239.53 284.51,-230.85"/>
<polygon fill="black" stroke="black" points="287.55,-229.11 279.24,-222.54 281.64,-232.86 287.55,-229.11"/>
</g>
<!-- v_321_3 -->
<g id="node30" class="node">
<title>v_321_3</title>
<polygon fill="white" stroke="black" points="725.88,-221 652.12,-221 652.12,-185 725.88,-185 725.88,-221"/>
<text xml:space="preserve" text-anchor="start" x="676.62" y="-204.7" font-family="Courier,monospace" font-size="14.00" fill="red">3</text>
<text xml:space="preserve" text-anchor="start" x="684.88" y="-204.7" font-family="Courier,monospace" font-size="14.00" fill="red">2</text>
<text xml:space="preserve" text-anchor="start" x="693.12" y="-204.7" font-family="Courier,monospace" font-size="14.00" fill="blue">1</text>
<text xml:space="preserve" text-anchor="start" x="660.12" y="-190.7" font-family="Courier,monospace" font-size="14.00">τ={1,2}</text>
</g>
<!-- v_231_3&#45;&gt;v_321_3 -->
<g id="edge45" class="edge">
<title>v_231_3&#45;&gt;v_321_3</title>
<path fill="none" stroke="black" d="M454.66,-269.04C459.46,-266 464.7,-263.26 470,-261.5 506.53,-249.39 608.08,-269.69 643,-253.5 654.18,-248.32 663.92,-239.06 671.53,-229.94"/>
<polygon fill="black" stroke="black" points="674.15,-232.28 677.48,-222.22 668.6,-228.01 674.15,-232.28"/>
</g>
<!-- v_312_1&#45;&gt;v_312_12 -->
<g id="edge33" class="edge">
<title>v_312_1&#45;&gt;v_312_12</title>
<path fill="none" stroke="black" d="M509.06,-269C509.7,-258.5 510.52,-244.89 511.25,-232.83"/>
<polygon fill="black" stroke="black" points="514.74,-233.18 511.85,-222.98 507.75,-232.75 514.74,-233.18"/>
</g>
<!-- v_312_1&#45;&gt;v_321_1 -->
<g id="edge38" class="edge">
<title>v_312_1&#45;&gt;v_321_1</title>
<path fill="none" stroke="black" d="M485.85,-269.06C481.17,-266.1 476.09,-263.38 471,-261.5 441.21,-250.52 428.35,-267.8 400,-253.5 389.27,-248.09 379.76,-239.08 372.22,-230.23"/>
<polygon fill="black" stroke="black" points="374.98,-228.08 366.03,-222.4 369.49,-232.41 374.98,-228.08"/>
</g>
<!-- v_312_2&#45;&gt;v_312_12 -->
<g id="edge31" class="edge">
<title>v_312_2&#45;&gt;v_312_12</title>
<path fill="none" stroke="black" d="M565.34,-269.04C560.57,-264.12 555.49,-258.69 551,-253.5 544.73,-246.24 538.24,-238.07 532.45,-230.5"/>
<polygon fill="black" stroke="black" points="535.27,-228.42 526.45,-222.55 529.68,-232.64 535.27,-228.42"/>
</g>
<!-- v_312_2&#45;&gt;v_321_2 -->
<g id="edge40" class="edge">
<title>v_312_2&#45;&gt;v_321_2</title>
<path fill="none" stroke="black" d="M585.97,-269C587.77,-258.39 590.11,-244.6 592.17,-232.46"/>
<polygon fill="black" stroke="black" points="595.56,-233.41 593.78,-222.96 588.66,-232.24 595.56,-233.41"/>
</g>
<!-- v_312_2&#45;&gt;v_321_3 -->
<g id="edge44" class="edge">
<title>v_312_2&#45;&gt;v_321_3</title>
<path fill="none" stroke="black" d="M607.44,-269.23C611.85,-266.46 616.48,-263.77 621,-261.5 630.3,-256.83 634.33,-259.25 643,-253.5 652.72,-247.05 661.84,-238.14 669.34,-229.66"/>
<polygon fill="black" stroke="black" points="671.81,-232.16 675.57,-222.25 666.46,-227.66 671.81,-232.16"/>
</g>
<!-- v_321_&#45;&gt;v_321_1 -->
<g id="edge36" class="edge">
<title>v_321_&#45;&gt;v_321_1</title>
<path fill="none" stroke="black" d="M640.15,-269.25C634.07,-266.11 627.49,-263.27 621,-261.5 597.3,-255.02 422.34,-263.72 400,-253.5 388.8,-248.37 379.05,-239.13 371.44,-230"/>
<polygon fill="black" stroke="black" points="374.37,-228.06 365.5,-222.27 368.82,-232.33 374.37,-228.06"/>
</g>
<!-- v_321_&#45;&gt;v_321_2 -->
<g id="edge39" class="edge">
<title>v_321_&#45;&gt;v_321_2</title>
<path fill="none" stroke="black" d="M652.15,-269C642.6,-257.74 629.99,-242.89 619.25,-230.22"/>
<polygon fill="black" stroke="black" points="621.94,-227.99 612.8,-222.62 616.6,-232.51 621.94,-227.99"/>
</g>
<!-- v_321_&#45;&gt;v_321_3 -->
<g id="edge43" class="edge">
<title>v_321_&#45;&gt;v_321_3</title>
<path fill="none" stroke="black" d="M671.67,-269C674.49,-258.39 678.17,-244.6 681.41,-232.46"/>
<polygon fill="black" stroke="black" points="684.76,-233.5 683.95,-222.93 677.99,-231.69 684.76,-233.5"/>
</g>
<!-- v_132_123 -->
<g id="node22" class="node">
<title>v_132_123</title>
<polygon fill="white" stroke="black" points="73.62,-221 16.38,-221 16.38,-185 73.62,-185 73.62,-221"/>
<text xml:space="preserve" text-anchor="start" x="32.62" y="-204.7" font-family="Courier,monospace" font-size="14.00" fill="blue">1</text>
<text xml:space="preserve" text-anchor="start" x="40.88" y="-204.7" font-family="Courier,monospace" font-size="14.00" fill="blue">3</text>
<text xml:space="preserve" text-anchor="start" x="49.12" y="-204.7" font-family="Courier,monospace" font-size="14.00" fill="blue">2</text>
<text xml:space="preserve" text-anchor="start" x="24.38" y="-190.7" font-family="Courier,monospace" font-size="14.00">τ={2}</text>
</g>
<!-- v_213_123 -->
<g id="node23" class="node">
<title>v_213_123</title>
<polygon fill="white" stroke="black" points="148.62,-221 91.38,-221 91.38,-185 148.62,-185 148.62,-221"/>
<text xml:space="preserve" text-anchor="start" x="107.62" y="-204.7" font-family="Courier,monospace" font-size="14.00" fill="blue">2</text>
<text xml:space="preserve" text-anchor="start" x="115.88" y="-204.7" font-family="Courier,monospace" font-size="14.00" fill="blue">1</text>
<text xml:space="preserve" text-anchor="start" x="124.12" y="-204.7" font-family="Courier,monospace" font-size="14.00" fill="blue">3</text>
<text xml:space="preserve" text-anchor="start" x="99.38" y="-190.7" font-family="Courier,monospace" font-size="14.00">τ={1}</text>
</g>
<!-- v_231_12 -->
<g id="node24" class="node">
<title>v_231_12</title>
<polygon fill="white" stroke="black" points="223.62,-221 166.38,-221 166.38,-185 223.62,-185 223.62,-221"/>
<text xml:space="preserve" text-anchor="start" x="182.62" y="-204.7" font-family="Courier,monospace" font-size="14.00" fill="blue">2</text>
<text xml:space="preserve" text-anchor="start" x="190.88" y="-204.7" font-family="Courier,monospace" font-size="14.00" fill="blue">3</text>
<text xml:space="preserve" text-anchor="start" x="199.12" y="-204.7" font-family="Courier,monospace" font-size="14.00" fill="red">1</text>
<text xml:space="preserve" text-anchor="start" x="174.38" y="-190.7" font-family="Courier,monospace" font-size="14.00">τ={2}</text>
</g>
<!-- v_321_13 -->
<g id="node34" class="node">
<title>v_321_13</title>
<polygon fill="white" stroke="black" points="453.88,-136.5 380.12,-136.5 380.12,-100.5 453.88,-100.5 453.88,-136.5"/>
<text xml:space="preserve" text-anchor="start" x="404.62" y="-120.2" font-family="Courier,monospace" font-size="14.00" fill="blue">3</text>
<text xml:space="preserve" text-anchor="start" x="412.88" y="-120.2" font-family="Courier,monospace" font-size="14.00" fill="red">2</text>
<text xml:space="preserve" text-anchor="start" x="421.12" y="-120.2" font-family="Courier,monospace" font-size="14.00" fill="blue">1</text>
<text xml:space="preserve" text-anchor="start" x="388.12" y="-106.2" font-family="Courier,monospace" font-size="14.00">τ={1,2}</text>
</g>
<!-- v_231_13&#45;&gt;v_321_13 -->
<g id="edge50" class="edge">
<title>v_231_13&#45;&gt;v_321_13</title>
<path fill="none" stroke="black" d="M292.82,-184.62C297.62,-181.65 302.82,-178.92 308,-177 334.47,-167.21 345.89,-181.89 371,-169 381.69,-163.51 391.19,-154.49 398.74,-145.65"/>
<polygon fill="black" stroke="black" points="401.47,-147.84 404.93,-137.83 395.98,-143.5 401.47,-147.84"/>
</g>
<!-- v_321_23 -->
<g id="node35" class="node">
<title>v_321_23</title>
<polygon fill="white" stroke="black" points="637.88,-136.5 564.12,-136.5 564.12,-100.5 637.88,-100.5 637.88,-136.5"/>
<text xml:space="preserve" text-anchor="start" x="588.62" y="-120.2" font-family="Courier,monospace" font-size="14.00" fill="red">3</text>
<text xml:space="preserve" text-anchor="start" x="596.88" y="-120.2" font-family="Courier,monospace" font-size="14.00" fill="blue">2</text>
<text xml:space="preserve" text-anchor="start" x="605.12" y="-120.2" font-family="Courier,monospace" font-size="14.00" fill="blue">1</text>
<text xml:space="preserve" text-anchor="start" x="572.12" y="-106.2" font-family="Courier,monospace" font-size="14.00">τ={1,2}</text>
</g>
<!-- v_231_13&#45;&gt;v_321_23 -->
<g id="edge54" class="edge">
<title>v_231_13&#45;&gt;v_321_23</title>
<path fill="none" stroke="black" d="M291.86,-184.74C296.9,-181.6 302.43,-178.77 308,-177 334.17,-168.7 530.01,-180.38 555,-169 566.21,-163.9 575.96,-154.65 583.57,-145.52"/>
<polygon fill="black" stroke="black" points="586.19,-147.85 589.51,-137.79 580.64,-143.59 586.19,-147.85"/>
</g>
<!-- v_321_12 -->
<g id="node33" class="node">
<title>v_321_12</title>
<polygon fill="white" stroke="black" points="545.88,-136.5 472.12,-136.5 472.12,-100.5 545.88,-100.5 545.88,-136.5"/>
<text xml:space="preserve" text-anchor="start" x="496.62" y="-120.2" font-family="Courier,monospace" font-size="14.00" fill="blue">3</text>
<text xml:space="preserve" text-anchor="start" x="504.88" y="-120.2" font-family="Courier,monospace" font-size="14.00" fill="blue">2</text>
<text xml:space="preserve" text-anchor="start" x="513.12" y="-120.2" font-family="Courier,monospace" font-size="14.00" fill="red">1</text>
<text xml:space="preserve" text-anchor="start" x="480.12" y="-106.2" font-family="Courier,monospace" font-size="14.00">τ={1,2}</text>
</g>
<!-- v_312_12&#45;&gt;v_321_12 -->
<g id="edge47" class="edge">
<title>v_312_12&#45;&gt;v_321_12</title>
<path fill="none" stroke="black" d="M512.15,-184.5C511.64,-174 510.98,-160.39 510.4,-148.33"/>
<polygon fill="black" stroke="black" points="513.9,-148.3 509.92,-138.48 506.91,-148.64 513.9,-148.3"/>
</g>
<!-- v_312_12&#45;&gt;v_321_13 -->
<g id="edge52" class="edge">
<title>v_312_12&#45;&gt;v_321_13</title>
<path fill="none" stroke="black" d="M487.62,-184.64C483.74,-182.05 479.78,-179.44 476,-177 470.3,-173.32 468.25,-173.3 463,-169 454.34,-161.9 445.74,-153.21 438.36,-145.1"/>
<polygon fill="black" stroke="black" points="441.13,-142.96 431.89,-137.78 435.89,-147.59 441.13,-142.96"/>
</g>
<!-- v_312_23 -->
<g id="node27" class="node">
<title>v_312_23</title>
<polygon fill="white" stroke="black" points="466.62,-221 409.38,-221 409.38,-185 466.62,-185 466.62,-221"/>
<text xml:space="preserve" text-anchor="start" x="425.62" y="-204.7" font-family="Courier,monospace" font-size="14.00" fill="red">3</text>
<text xml:space="preserve" text-anchor="start" x="433.88" y="-204.7" font-family="Courier,monospace" font-size="14.00" fill="blue">1</text>
<text xml:space="preserve" text-anchor="start" x="442.12" y="-204.7" font-family="Courier,monospace" font-size="14.00" fill="blue">2</text>
<text xml:space="preserve" text-anchor="start" x="417.38" y="-190.7" font-family="Courier,monospace" font-size="14.00">τ={1}</text>
</g>
<!-- v_321_1&#45;&gt;v_321_12 -->
<g id="edge46" class="edge">
<title>v_321_1&#45;&gt;v_321_12</title>
<path fill="none" stroke="black" d="M381.97,-184.68C387.76,-181.71 393.94,-178.95 400,-177 426.86,-168.33 437.89,-181.89 463,-169 473.69,-163.51 483.19,-154.49 490.74,-145.65"/>
<polygon fill="black" stroke="black" points="493.47,-147.84 496.93,-137.83 487.98,-143.5 493.47,-147.84"/>
</g>
<!-- v_321_1&#45;&gt;v_321_13 -->
<g id="edge51" class="edge">
<title>v_321_1&#45;&gt;v_321_13</title>
<path fill="none" stroke="black" d="M367.36,-184.5C375.88,-173.35 387.09,-158.67 396.69,-146.09"/>
<polygon fill="black" stroke="black" points="399.45,-148.25 402.74,-138.17 393.89,-144 399.45,-148.25"/>
</g>
<!-- v_321_2&#45;&gt;v_321_12 -->
<g id="edge48" class="edge">
<title>v_321_2&#45;&gt;v_321_12</title>
<path fill="none" stroke="black" d="M573.8,-184.82C567.53,-179.9 560.87,-174.4 555,-169 546.97,-161.61 538.71,-153.06 531.44,-145.16"/>
<polygon fill="black" stroke="black" points="534.03,-142.81 524.73,-137.75 528.84,-147.51 534.03,-142.81"/>
</g>
<!-- v_321_2&#45;&gt;v_321_23 -->
<g id="edge55" class="edge">
<title>v_321_2&#45;&gt;v_321_23</title>
<path fill="none" stroke="black" d="M597.85,-184.5C598.36,-174 599.02,-160.39 599.6,-148.33"/>
<polygon fill="black" stroke="black" points="603.09,-148.64 600.08,-138.48 596.1,-148.3 603.09,-148.64"/>
</g>
<!-- v_321_3&#45;&gt;v_321_13 -->
<g id="edge49" class="edge">
<title>v_321_3&#45;&gt;v_321_13</title>
<path fill="none" stroke="black" d="M661.64,-184.54C655.7,-181.5 649.31,-178.75 643,-177 604.42,-166.28 499.34,-185.81 463,-169 451.82,-163.83 442.07,-154.57 434.46,-145.45"/>
<polygon fill="black" stroke="black" points="437.39,-143.52 428.52,-137.73 431.85,-147.79 437.39,-143.52"/>
</g>
<!-- v_321_3&#45;&gt;v_321_23 -->
<g id="edge53" class="edge">
<title>v_321_3&#45;&gt;v_321_23</title>
<path fill="none" stroke="black" d="M670.34,-184.5C657.97,-172.91 641.55,-157.52 627.8,-144.62"/>
<polygon fill="black" stroke="black" points="630.43,-142.29 620.74,-138.01 625.64,-147.4 630.43,-142.29"/>
</g>
<!-- v_231_123 -->
<g id="node31" class="node">
<title>v_231_123</title>
<polygon fill="white" stroke="black" points="286.62,-136.5 229.38,-136.5 229.38,-100.5 286.62,-100.5 286.62,-136.5"/>
<text xml:space="preserve" text-anchor="start" x="245.62" y="-120.2" font-family="Courier,monospace" font-size="14.00" fill="blue">2</text>
<text xml:space="preserve" text-anchor="start" x="253.88" y="-120.2" font-family="Courier,monospace" font-size="14.00" fill="blue">3</text>
<text xml:space="preserve" text-anchor="start" x="262.12" y="-120.2" font-family="Courier,monospace" font-size="14.00" fill="blue">1</text>
<text xml:space="preserve" text-anchor="start" x="237.38" y="-106.2" font-family="Courier,monospace" font-size="14.00">τ={2}</text>
</g>
<!-- v_312_123 -->
<g id="node32" class="node">
<title>v_312_123</title>
<polygon fill="white" stroke="black" points="361.62,-136.5 304.38,-136.5 304.38,-100.5 361.62,-100.5 361.62,-136.5"/>
<text xml:space="preserve" text-anchor="start" x="320.62" y="-120.2" font-family="Courier,monospace" font-size="14.00" fill="blue">3</text>
<text xml:space="preserve" text-anchor="start" x="328.88" y="-120.2" font-family="Courier,monospace" font-size="14.00" fill="blue">1</text>
<text xml:space="preserve" text-anchor="start" x="337.12" y="-120.2" font-family="Courier,monospace" font-size="14.00" fill="blue">2</text>
<text xml:space="preserve" text-anchor="start" x="312.38" y="-106.2" font-family="Courier,monospace" font-size="14.00">τ={1}</text>
</g>
<!-- v_321_123 -->
<g id="node36" class="node">
<title>v_321_123</title>
<polygon fill="white" stroke="black" points="545.88,-52 472.12,-52 472.12,-16 545.88,-16 545.88,-52"/>
<text xml:space="preserve" text-anchor="start" x="496.62" y="-35.7" font-family="Courier,monospace" font-size="14.00" fill="blue">3</text>
<text xml:space="preserve" text-anchor="start" x="504.88" y="-35.7" font-family="Courier,monospace" font-size="14.00" fill="blue">2</text>
<text xml:space="preserve" text-anchor="start" x="513.12" y="-35.7" font-family="Courier,monospace" font-size="14.00" fill="blue">1</text>
<text xml:space="preserve" text-anchor="start" x="480.12" y="-21.7" font-family="Courier,monospace" font-size="14.00">τ={1,2}</text>
</g>
<!-- v_321_12&#45;&gt;v_321_123 -->
<g id="edge57" class="edge">
<title>v_321_12&#45;&gt;v_321_123</title>
<path fill="none" stroke="black" d="M509,-100C509,-89.5 509,-75.89 509,-63.83"/>
<polygon fill="black" stroke="black" points="512.5,-63.98 509,-53.98 505.5,-63.98 512.5,-63.98"/>
</g>
<!-- v_321_13&#45;&gt;v_321_123 -->
<g id="edge56" class="edge">
<title>v_321_13&#45;&gt;v_321_123</title>
<path fill="none" stroke="black" d="M436.51,-100C449.44,-88.41 466.6,-73.02 480.99,-60.12"/>
<polygon fill="black" stroke="black" points="483.28,-62.76 488.39,-53.48 478.61,-57.55 483.28,-62.76"/>
</g>
<!-- v_321_23&#45;&gt;v_321_123 -->
<g id="edge58" class="edge">
<title>v_321_23&#45;&gt;v_321_123</title>
<path fill="none" stroke="black" d="M581.49,-100C568.56,-88.41 551.4,-73.02 537.01,-60.12"/>
<polygon fill="black" stroke="black" points="539.39,-57.55 529.61,-53.48 534.72,-62.76 539.39,-57.55"/>
</g>
</g>
</svg>
