<?xml version="1.0" encoding="UTF-8" standalone="no"?>
<!DOCTYPE svg PUBLIC "-//W3C//DTD SVG 1.1//EN"
 "http://www.w3.org/Graphics/SVG/1.1/DTD/svg11.dtd">
<!-- Generated by graphviz version 13.1.2 (20250808.2320)
 -->
<!-- Title: WGraph_n2 Pages: 1 -->
<svg width="380pt" height="355pt"
 viewBox="0.00 0.00 380.00 355.00" xmlns="http://www.w3.org/2000/svg" xmlns:xlink="http://www.w3.org/1999/xlink">
<g id="graph0" class="graph" transform="scale(1 1) rotate(0) translate(4 350.75)">
<title>WGraph_n2</title>
<polygon fill="white" stroke="none" points="-4,4 -4,-350.75 376,-350.75 376,4 -4,4"/>
<g id="clust1" class="cluster">
<title>cluster_legend</title>
<polygon fill="none" stroke="black" points="8,-261.5 8,-338.75 246,-338.75 246,-261.5 8,-261.5"/>
<text xml:space="preserve" text-anchor="middle" x="127" y="-323.35" font-family="Times,serif" font-size="12.00">Colored words: blue if i∈β, red if i∉β</text>
</g>
<g id="clust2" class="cluster">
<title>cluster_ell0</title>
<polygon fill="none" stroke="black" stroke-dasharray="5,2" points="254,-261.5 254,-338 324,-338 324,-261.5 254,-261.5"/>
<text xml:space="preserve" text-anchor="middle" x="289" y="-320.7" font-family="Times,serif" font-size="14.00">ℓ=0</text>
</g>
<g id="clust3" class="cluster">
<title>cluster_ell1</title>
<polygon fill="none" stroke="black" stroke-dasharray="5,2" points="217,-177 217,-253.5 363,-253.5 363,-177 217,-177"/>
<text xml:space="preserve" text-anchor="middle" x="290" y="-236.2" font-family="Times,serif" font-size="14.00">ℓ=1</text>
</g>
<g id="clust4" class="cluster">
<title>cluster_ell2</title>
<polygon fill="none" stroke="black" stroke-dasharray="5,2" points="143,-92.5 143,-169 364,-169 364,-92.5 143,-92.5"/>
<text xml:space="preserve" text-anchor="middle" x="253.5" y="-151.7" font-family="Times,serif" font-size="14.00">ℓ=2</text>
</g>
<g id="clust5" class="cluster">
<title>cluster_ell3</title>
<polygon fill="none" stroke="black" stroke-dasharray="5,2" points="252,-8 252,-84.5 326,-84.5 326,-8 252,-8"/>
<text xml:space="preserve" text-anchor="middle" x="289" y="-67.2" font-family="Times,serif" font-size="14.00">ℓ=3</text>
</g>
<!-- legend_red -->
<g id="node1" class="node">
<title>legend_red</title>
<polygon fill="white" stroke="black" points="113.88,-305.5 16.12,-305.5 16.12,-269.5 113.88,-269.5 113.88,-305.5"/>
<text xml:space="preserve" text-anchor="start" x="24.12" y="-285.32" font-family="Courier,monospace" font-size="14.00">i ∉ β: </text>
<text xml:space="preserve" text-anchor="start" x="81.12" y="-285.32" font-family="Courier,monospace" font-size="14.00" fill="red">red</text>
</g>
<!-- legend_blue -->
<g id="node2" class="node">
<title>legend_blue</title>
<polygon fill="white" stroke="black" points="238,-305.5 132,-305.5 132,-269.5 238,-269.5 238,-305.5"/>
<text xml:space="preserve" text-anchor="start" x="140" y="-285.32" font-family="Courier,monospace" font-size="14.00">i ∈ β: </text>
<text xml:space="preserve" text-anchor="start" x="197" y="-285.32" font-family="Courier,monospace" font-size="14.00" fill="blue">blue</text>
</g>
<!-- v_12_ -->
<g id="node3" class="node">
<title>v_12_</title>
<polygon fill="white" stroke="black" points="316,-305.5 262,-305.5 262,-269.5 316,-269.5 316,-305.5"/>
<text xml:space="preserve" text-anchor="start" x="280.75" y="-289.2" font-family="Courier,monospace" font-size="14.00" fill="red">1</text>
<text xml:space="preserve" text-anchor="start" x="289" y="-289.2" font-family="Courier,monospace" font-size="14.00" fill="red">2</text>
<text xml:space="preserve" text-anchor="start" x="272.5" y="-275.2" font-family="Courier,monospace" font-size="14.00">τ={}</text>
</g>
<!-- v_12_1 -->
<g id="node4" class="node">
<title>v_12_1</title>
<polygon fill="white" stroke="black" points="279,-221 225,-221 225,-185 279,-185 279,-221"/>
<text xml:space="preserve" text-anchor="start" x="243.75" y="-204.7" font-family="Courier,monospace" font-size="14.00" fill="blue">1</text>
<text xml:space="preserve" text-anchor="start" x="252" y="-204.7" font-family="Courier,monospace" font-size="14.00" fill="red">2</text>
<text xml:space="preserve" text-anchor="start" x="235.5" y="-190.7" font-family="Courier,monospace" font-size="14.00">τ={}</text>
</g>
<!-- v_12_&#45;&gt;v_12_1 -->
<g id="edge1" class="edge">
<title>v_12_&#45;&gt;v_12_1</title>
<path fill="none" stroke="black" d="M281.15,-269C276.3,-258.18 269.95,-244.03 264.43,-231.71"/>
<polygon fill="black" stroke="black" points="267.74,-230.54 260.45,-222.85 261.35,-233.41 267.74,-230.54"/>
</g>
<!-- v_21_ -->
<g id="node5" class="node">
<title>v_21_</title>
<polygon fill="white" stroke="black" points="354.62,-221 297.38,-221 297.38,-185 354.62,-185 354.62,-221"/>
<text xml:space="preserve" text-anchor="start" x="317.75" y="-204.7" font-family="Courier,monospace" font-size="14.00" fill="red">2</text>
<text xml:space="preserve" text-anchor="start" x="326" y="-204.7" font-family="Courier,monospace" font-size="14.00" fill="red">1</text>
<text xml:space="preserve" text-anchor="start" x="305.38" y="-190.7" font-family="Courier,monospace" font-size="14.00">τ={1}</text>
</g>
<!-- v_12_&#45;&gt;v_21_ -->
<g id="edge2" class="edge">
<title>v_12_&#45;&gt;v_21_</title>
<path fill="none" stroke="black" d="M296.85,-269C301.7,-258.18 308.05,-244.03 313.57,-231.71"/>
<polygon fill="black" stroke="black" points="316.65,-233.41 317.55,-222.85 310.26,-230.54 316.65,-233.41"/>
</g>
<!-- v_21_1 -->
<g id="node7" class="node">
<title>v_21_1</title>
<polygon fill="white" stroke="black" points="280.62,-136.5 223.38,-136.5 223.38,-100.5 280.62,-100.5 280.62,-136.5"/>
<text xml:space="preserve" text-anchor="start" x="243.75" y="-120.2" font-family="Courier,monospace" font-size="14.00" fill="blue">2</text>
<text xml:space="preserve" text-anchor="start" x="252" y="-120.2" font-family="Courier,monospace" font-size="14.00" fill="red">1</text>
<text xml:space="preserve" text-anchor="start" x="231.38" y="-106.2" font-family="Courier,monospace" font-size="14.00">τ={1}</text>
</g>
<!-- v_12_1&#45;&gt;v_21_1 -->
<g id="edge4" class="edge">
<title>v_12_1&#45;&gt;v_21_1</title>
<path fill="none" stroke="black" d="M252,-184.5C252,-174 252,-160.39 252,-148.33"/>
<polygon fill="black" stroke="black" points="255.5,-148.48 252,-138.48 248.5,-148.48 255.5,-148.48"/>
</g>
<!-- v_21_2 -->
<g id="node8" class="node">
<title>v_21_2</title>
<polygon fill="white" stroke="black" points="355.62,-136.5 298.38,-136.5 298.38,-100.5 355.62,-100.5 355.62,-136.5"/>
<text xml:space="preserve" text-anchor="start" x="318.75" y="-120.2" font-family="Courier,monospace" font-size="14.00" fill="red">2</text>
<text xml:space="preserve" text-anchor="start" x="327" y="-120.2" font-family="Courier,monospace" font-size="14.00" fill="blue">1</text>
<text xml:space="preserve" text-anchor="start" x="306.38" y="-106.2" font-family="Courier,monospace" font-size="14.00">τ={1}</text>
</g>
<!-- v_12_1&#45;&gt;v_21_2 -->
<g id="edge6" class="edge">
<title>v_12_1&#45;&gt;v_21_2</title>
<path fill="none" stroke="black" d="M273.64,-184.61C279.19,-179.78 285,-174.38 290,-169 296.57,-161.93 303.1,-153.71 308.8,-146.03"/>
<polygon fill="black" stroke="black" points="311.62,-148.09 314.63,-137.93 305.94,-144 311.62,-148.09"/>
</g>
<!-- v_21_&#45;&gt;v_21_1 -->
<g id="edge3" class="edge">
<title>v_21_&#45;&gt;v_21_1</title>
<path fill="none" stroke="black" d="M304.95,-184.54C299.55,-179.71 293.89,-174.33 289,-169 282.47,-161.88 275.96,-153.65 270.26,-145.97"/>
<polygon fill="black" stroke="black" points="273.12,-143.94 264.42,-137.89 267.44,-148.04 273.12,-143.94"/>
</g>
<!-- v_21_&#45;&gt;v_21_2 -->
<g id="edge5" class="edge">
<title>v_21_&#45;&gt;v_21_2</title>
<path fill="none" stroke="black" d="M326.21,-184.5C326.34,-174 326.5,-160.39 326.65,-148.33"/>
<polygon fill="black" stroke="black" points="330.15,-148.53 326.77,-138.48 323.15,-148.44 330.15,-148.53"/>
</g>
<!-- v_12_12 -->
<g id="node6" class="node">
<title>v_12_12</title>
<polygon fill="white" stroke="black" points="205,-136.5 151,-136.5 151,-100.5 205,-100.5 205,-136.5"/>
<text xml:space="preserve" text-anchor="start" x="169.75" y="-120.2" font-family="Courier,monospace" font-size="14.00" fill="blue">1</text>
<text xml:space="preserve" text-anchor="start" x="178" y="-120.2" font-family="Courier,monospace" font-size="14.00" fill="blue">2</text>
<text xml:space="preserve" text-anchor="start" x="161.5" y="-106.2" font-family="Courier,monospace" font-size="14.00">τ={}</text>
</g>
<!-- v_21_12 -->
<g id="node9" class="node">
<title>v_21_12</title>
<polygon fill="white" stroke="black" points="317.62,-52 260.38,-52 260.38,-16 317.62,-16 317.62,-52"/>
<text xml:space="preserve" text-anchor="start" x="280.75" y="-35.7" font-family="Courier,monospace" font-size="14.00" fill="blue">2</text>
<text xml:space="preserve" text-anchor="start" x="289" y="-35.7" font-family="Courier,monospace" font-size="14.00" fill="blue">1</text>
<text xml:space="preserve" text-anchor="start" x="268.38" y="-21.7" font-family="Courier,monospace" font-size="14.00">τ={1}</text>
</g>
<!-- v_21_1&#45;&gt;v_21_12 -->
<g id="edge7" class="edge">
<title>v_21_1&#45;&gt;v_21_12</title>
<path fill="none" stroke="black" d="M259.85,-100C264.7,-89.18 271.05,-75.03 276.57,-62.71"/>
<polygon fill="black" stroke="black" points="279.65,-64.41 280.55,-53.85 273.26,-61.54 279.65,-64.41"/>
</g>
<!-- v_21_2&#45;&gt;v_21_12 -->
<g id="edge8" class="edge">
<title>v_21_2&#45;&gt;v_21_12</title>
<path fill="none" stroke="black" d="M318.94,-100C313.95,-89.18 307.44,-75.03 301.76,-62.71"/>
<polygon fill="black" stroke="black" points="305.04,-61.46 297.68,-53.85 298.69,-64.39 305.04,-61.46"/>
</g>
</g>
</svg>
