<?xml version="1.0" encoding="UTF-8" standalone="no"?>
<!DOCTYPE svg PUBLIC "-//W3C//DTD SVG 1.1//EN"
 "http://www.w3.org/Graphics/SVG/1.1/DTD/svg11.dtd">
<!-- Generated by graphviz version 13.1.2 (20250808.2320)
 -->
<!-- Title: WGraph_n3 Pages: 1 -->
<svg width="818pt" height="643pt"
 viewBox="0.00 0.00 818.00 643.00" xmlns="http://www.w3.org/2000/svg" xmlns:xlink="http://www.w3.org/1999/xlink">
<g id="graph0" class="graph" transform="scale(1 1) rotate(0) translate(4 638.5)">
<title>WGraph_n3</title>
<polygon fill="white" stroke="none" points="-4,4 -4,-638.5 814,-638.5 814,4 -4,4"/>
<g id="clust1" class="cluster">
<title>cluster_legend</title>
<polygon fill="none" stroke="black" points="121,-547.5 121,-621.75 420,-621.75 420,-547.5 121,-547.5"/>
<text xml:space="preserve" text-anchor="middle" x="270.5" y="-606.35" font-family="Times,serif" font-size="12.00">Painted partition |β|</text>
</g>
<g id="clust2" class="cluster">
<title>cluster_ell0</title>
<polygon fill="none" stroke="black" stroke-dasharray="5,2" points="493,-545 493,-626.5 563,-626.5 563,-545 493,-545"/>
<text xml:space="preserve" text-anchor="middle" x="528" y="-609.2" font-family="Times,serif" font-size="14.00">ℓ=0</text>
</g>
<g id="clust3" class="cluster">
<title>cluster_ell1</title>
<polygon fill="none" stroke="black" stroke-dasharray="5,2" points="416,-455.5 416,-537 640,-537 640,-455.5 416,-455.5"/>
<text xml:space="preserve" text-anchor="middle" x="528" y="-519.7" font-family="Times,serif" font-size="14.00">ℓ=1</text>
</g>
<g id="clust4" class="cluster">
<title>cluster_ell2</title>
<polygon fill="none" stroke="black" stroke-dasharray="5,2" points="258,-366 258,-447.5 715,-447.5 715,-366 258,-366"/>
<text xml:space="preserve" text-anchor="middle" x="486.5" y="-430.2" font-family="Times,serif" font-size="14.00">ℓ=2</text>
</g>
<g id="clust5" class="cluster">
<title>cluster_ell3</title>
<polygon fill="none" stroke="black" stroke-dasharray="5,2" points="36,-276.5 36,-358 770,-358 770,-276.5 36,-276.5"/>
<text xml:space="preserve" text-anchor="middle" x="403" y="-340.7" font-family="Times,serif" font-size="14.00">ℓ=3</text>
</g>
<g id="clust6" class="cluster">
<title>cluster_ell4</title>
<polygon fill="none" stroke="black" stroke-dasharray="5,2" points="8,-187 8,-268.5 802,-268.5 802,-187 8,-187"/>
<text xml:space="preserve" text-anchor="middle" x="405" y="-251.2" font-family="Times,serif" font-size="14.00">ℓ=4</text>
</g>
<g id="clust7" class="cluster">
<title>cluster_ell5</title>
<polygon fill="none" stroke="black" stroke-dasharray="5,2" points="254,-97.5 254,-179 712,-179 712,-97.5 254,-97.5"/>
<text xml:space="preserve" text-anchor="middle" x="483" y="-161.7" font-family="Times,serif" font-size="14.00">ℓ=5</text>
</g>
<g id="clust8" class="cluster">
<title>cluster_ell6</title>
<polygon fill="none" stroke="black" stroke-dasharray="5,2" points="530,-8 530,-89.5 620,-89.5 620,-8 530,-8"/>
<text xml:space="preserve" text-anchor="middle" x="575" y="-72.2" font-family="Times,serif" font-size="14.00">ℓ=6</text>
</g>
<!-- legend_0 -->
<g id="node1" class="node">
<title>legend_0</title>
<polygon fill="#ffffff" stroke="black" points="186.62,-591.5 129.38,-591.5 129.38,-555.5 186.62,-555.5 186.62,-591.5"/>
<text xml:space="preserve" text-anchor="middle" x="158" y="-568.45" font-family="Courier,monospace" font-size="14.00" fill="#000000">|β|=0</text>
</g>
<!-- legend_1 -->
<g id="node2" class="node">
<title>legend_1</title>
<polygon fill="#cce5ff" stroke="black" points="261.62,-591.5 204.38,-591.5 204.38,-555.5 261.62,-555.5 261.62,-591.5"/>
<text xml:space="preserve" text-anchor="middle" x="233" y="-568.45" font-family="Courier,monospace" font-size="14.00" fill="#000000">|β|=1</text>
</g>
<!-- legend_2 -->
<g id="node3" class="node">
<title>legend_2</title>
<polygon fill="#d4edda" stroke="black" points="336.62,-591.5 279.38,-591.5 279.38,-555.5 336.62,-555.5 336.62,-591.5"/>
<text xml:space="preserve" text-anchor="middle" x="308" y="-568.45" font-family="Courier,monospace" font-size="14.00" fill="#000000">|β|=2</text>
</g>
<!-- legend_3 -->
<g id="node4" class="node">
<title>legend_3</title>
<polygon fill="#fff3cd" stroke="black" points="411.62,-591.5 354.38,-591.5 354.38,-555.5 411.62,-555.5 411.62,-591.5"/>
<text xml:space="preserve" text-anchor="middle" x="383" y="-568.45" font-family="Courier,monospace" font-size="14.00" fill="#000000">|β|=3</text>
</g>
<!-- v_123_ -->
<g id="node5" class="node">
<title>v_123_</title>
<polygon fill="#f0f0f0" stroke="black" points="555,-594 501,-594 501,-553 555,-553 555,-594"/>
<text xml:space="preserve" text-anchor="middle" x="528" y="-576.7" font-family="Courier,monospace" font-size="14.00" fill="#000000">123</text>
<text xml:space="preserve" text-anchor="middle" x="528" y="-560.2" font-family="Courier,monospace" font-size="14.00" fill="#000000">τ={}</text>
</g>
<!-- v_123_1 -->
<g id="node6" class="node">
<title>v_123_1</title>
<polygon fill="#a8d5e2" stroke="black" points="481.62,-504.5 424.38,-504.5 424.38,-463.5 481.62,-463.5 481.62,-504.5"/>
<text xml:space="preserve" text-anchor="middle" x="453" y="-487.2" font-family="Courier,monospace" font-size="14.00" fill="#000000">123|1</text>
<text xml:space="preserve" text-anchor="middle" x="453" y="-470.7" font-family="Courier,monospace" font-size="14.00" fill="#000000">τ={}</text>
</g>
<!-- v_123_&#45;&gt;v_123_1 -->
<g id="edge1" class="edge">
<title>v_123_&#45;&gt;v_123_1</title>
<path fill="none" stroke="black" d="M505.16,-552.56C499.98,-547.66 494.64,-542.3 490,-537 483.84,-529.96 477.73,-521.92 472.29,-514.29"/>
<polygon fill="black" stroke="black" points="475.26,-512.43 466.68,-506.21 469.51,-516.42 475.26,-512.43"/>
</g>
<!-- v_132_ -->
<g id="node7" class="node">
<title>v_132_</title>
<polygon fill="#f0f0f0" stroke="black" points="631.62,-504.5 574.38,-504.5 574.38,-463.5 631.62,-463.5 631.62,-504.5"/>
<text xml:space="preserve" text-anchor="middle" x="603" y="-487.2" font-family="Courier,monospace" font-size="14.00" fill="#000000">132</text>
<text xml:space="preserve" text-anchor="middle" x="603" y="-470.7" font-family="Courier,monospace" font-size="14.00" fill="#000000">τ={2}</text>
</g>
<!-- v_123_&#45;&gt;v_132_ -->
<g id="edge2" class="edge">
<title>v_123_&#45;&gt;v_132_</title>
<path fill="none" stroke="black" d="M550.84,-552.56C556.02,-547.66 561.36,-542.3 566,-537 572.16,-529.96 578.27,-521.92 583.71,-514.29"/>
<polygon fill="black" stroke="black" points="586.49,-516.42 589.32,-506.21 580.74,-512.43 586.49,-516.42"/>
</g>
<!-- v_213_ -->
<g id="node8" class="node">
<title>v_213_</title>
<polygon fill="#f0f0f0" stroke="black" points="556.62,-504.5 499.38,-504.5 499.38,-463.5 556.62,-463.5 556.62,-504.5"/>
<text xml:space="preserve" text-anchor="middle" x="528" y="-487.2" font-family="Courier,monospace" font-size="14.00" fill="#000000">213</text>
<text xml:space="preserve" text-anchor="middle" x="528" y="-470.7" font-family="Courier,monospace" font-size="14.00" fill="#000000">τ={1}</text>
</g>
<!-- v_123_&#45;&gt;v_213_ -->
<g id="edge5" class="edge">
<title>v_123_&#45;&gt;v_213_</title>
<path fill="none" stroke="black" d="M528,-552.64C528,-541.9 528,-528.39 528,-516.28"/>
<polygon fill="black" stroke="black" points="531.5,-516.29 528,-506.29 524.5,-516.29 531.5,-516.29"/>
</g>
<!-- v_132_1 -->
<g id="node10" class="node">
<title>v_132_1</title>
<polygon fill="#a8d5e2" stroke="black" points="556.62,-415 499.38,-415 499.38,-374 556.62,-374 556.62,-415"/>
<text xml:space="preserve" text-anchor="middle" x="528" y="-397.7" font-family="Courier,monospace" font-size="14.00" fill="#000000">132|1</text>
<text xml:space="preserve" text-anchor="middle" x="528" y="-381.2" font-family="Courier,monospace" font-size="14.00" fill="#000000">τ={2}</text>
</g>
<!-- v_123_1&#45;&gt;v_132_1 -->
<g id="edge4" class="edge">
<title>v_123_1&#45;&gt;v_132_1</title>
<path fill="none" stroke="black" d="M475.84,-463.06C481.02,-458.16 486.36,-452.8 491,-447.5 497.16,-440.46 503.27,-432.42 508.71,-424.79"/>
<polygon fill="black" stroke="black" points="511.49,-426.92 514.32,-416.71 505.74,-422.93 511.49,-426.92"/>
</g>
<!-- v_213_1 -->
<g id="node11" class="node">
<title>v_213_1</title>
<polygon fill="#a8d5e2" stroke="black" points="406.62,-415 349.38,-415 349.38,-374 406.62,-374 406.62,-415"/>
<text xml:space="preserve" text-anchor="middle" x="378" y="-397.7" font-family="Courier,monospace" font-size="14.00" fill="#000000">213|1</text>
<text xml:space="preserve" text-anchor="middle" x="378" y="-381.2" font-family="Courier,monospace" font-size="14.00" fill="#000000">τ={1}</text>
</g>
<!-- v_123_1&#45;&gt;v_213_1 -->
<g id="edge6" class="edge">
<title>v_123_1&#45;&gt;v_213_1</title>
<path fill="none" stroke="black" d="M430.16,-463.06C424.98,-458.16 419.64,-452.8 415,-447.5 408.84,-440.46 402.73,-432.42 397.29,-424.79"/>
<polygon fill="black" stroke="black" points="400.26,-422.93 391.68,-416.71 394.51,-426.92 400.26,-422.93"/>
</g>
<!-- v_213_2 -->
<g id="node12" class="node">
<title>v_213_2</title>
<polygon fill="#95d5b2" stroke="black" points="481.62,-415 424.38,-415 424.38,-374 481.62,-374 481.62,-415"/>
<text xml:space="preserve" text-anchor="middle" x="453" y="-397.7" font-family="Courier,monospace" font-size="14.00" fill="#000000">213|2</text>
<text xml:space="preserve" text-anchor="middle" x="453" y="-381.2" font-family="Courier,monospace" font-size="14.00" fill="#000000">τ={1}</text>
</g>
<!-- v_123_1&#45;&gt;v_213_2 -->
<g id="edge8" class="edge">
<title>v_123_1&#45;&gt;v_213_2</title>
<path fill="none" stroke="black" d="M453,-463.14C453,-452.4 453,-438.89 453,-426.78"/>
<polygon fill="black" stroke="black" points="456.5,-426.79 453,-416.79 449.5,-426.79 456.5,-426.79"/>
</g>
<!-- v_132_&#45;&gt;v_132_1 -->
<g id="edge3" class="edge">
<title>v_132_&#45;&gt;v_132_1</title>
<path fill="none" stroke="black" d="M580.16,-463.06C574.98,-458.16 569.64,-452.8 565,-447.5 558.84,-440.46 552.73,-432.42 547.29,-424.79"/>
<polygon fill="black" stroke="black" points="550.26,-422.93 541.68,-416.71 544.51,-426.92 550.26,-422.93"/>
</g>
<!-- v_231_ -->
<g id="node13" class="node">
<title>v_231_</title>
<polygon fill="#f0f0f0" stroke="black" points="631.62,-415 574.38,-415 574.38,-374 631.62,-374 631.62,-415"/>
<text xml:space="preserve" text-anchor="middle" x="603" y="-397.7" font-family="Courier,monospace" font-size="14.00" fill="#000000">231</text>
<text xml:space="preserve" text-anchor="middle" x="603" y="-381.2" font-family="Courier,monospace" font-size="14.00" fill="#000000">τ={2}</text>
</g>
<!-- v_132_&#45;&gt;v_231_ -->
<g id="edge12" class="edge">
<title>v_132_&#45;&gt;v_231_</title>
<path fill="none" stroke="black" d="M603,-463.14C603,-452.4 603,-438.89 603,-426.78"/>
<polygon fill="black" stroke="black" points="606.5,-426.79 603,-416.79 599.5,-426.79 606.5,-426.79"/>
</g>
<!-- v_312_ -->
<g id="node14" class="node">
<title>v_312_</title>
<polygon fill="#f0f0f0" stroke="black" points="706.62,-415 649.38,-415 649.38,-374 706.62,-374 706.62,-415"/>
<text xml:space="preserve" text-anchor="middle" x="678" y="-397.7" font-family="Courier,monospace" font-size="14.00" fill="#000000">312</text>
<text xml:space="preserve" text-anchor="middle" x="678" y="-381.2" font-family="Courier,monospace" font-size="14.00" fill="#000000">τ={1}</text>
</g>
<!-- v_132_&#45;&gt;v_312_ -->
<g id="edge23" class="edge">
<title>v_132_&#45;&gt;v_312_</title>
<path fill="none" stroke="black" d="M625.84,-463.06C631.02,-458.16 636.36,-452.8 641,-447.5 647.16,-440.46 653.27,-432.42 658.71,-424.79"/>
<polygon fill="black" stroke="black" points="661.49,-426.92 664.32,-416.71 655.74,-422.93 661.49,-426.92"/>
</g>
<!-- v_213_&#45;&gt;v_213_1 -->
<g id="edge7" class="edge">
<title>v_213_&#45;&gt;v_213_1</title>
<path fill="none" stroke="black" d="M505.24,-463.21C500.76,-460.18 495.92,-457.42 491,-455.5 459.36,-443.15 444.33,-464.63 415,-447.5 405.89,-442.18 398.44,-433.63 392.68,-424.98"/>
<polygon fill="black" stroke="black" points="395.82,-423.41 387.67,-416.65 389.82,-427.02 395.82,-423.41"/>
</g>
<!-- v_213_&#45;&gt;v_213_2 -->
<g id="edge9" class="edge">
<title>v_213_&#45;&gt;v_213_2</title>
<path fill="none" stroke="black" d="M505.16,-463.06C499.98,-458.16 494.64,-452.8 490,-447.5 483.84,-440.46 477.73,-432.42 472.29,-424.79"/>
<polygon fill="black" stroke="black" points="475.26,-422.93 466.68,-416.71 469.51,-426.92 475.26,-422.93"/>
</g>
<!-- v_213_&#45;&gt;v_231_ -->
<g id="edge13" class="edge">
<title>v_213_&#45;&gt;v_231_</title>
<path fill="none" stroke="black" d="M550.84,-463.06C556.02,-458.16 561.36,-452.8 566,-447.5 572.16,-440.46 578.27,-432.42 583.71,-424.79"/>
<polygon fill="black" stroke="black" points="586.49,-426.92 589.32,-416.71 580.74,-422.93 586.49,-426.92"/>
</g>
<!-- v_213_&#45;&gt;v_312_ -->
<g id="edge24" class="edge">
<title>v_213_&#45;&gt;v_312_</title>
<path fill="none" stroke="black" d="M550.76,-463.21C555.24,-460.18 560.08,-457.42 565,-455.5 596.64,-443.15 611.67,-464.63 641,-447.5 650.11,-442.18 657.56,-433.63 663.32,-424.98"/>
<polygon fill="black" stroke="black" points="666.18,-427.02 668.33,-416.65 660.18,-423.41 666.18,-427.02"/>
</g>
<!-- v_123_12 -->
<g id="node9" class="node">
<title>v_123_12</title>
<polygon fill="#ffd6a5" stroke="black" points="331.75,-415 266.25,-415 266.25,-374 331.75,-374 331.75,-415"/>
<text xml:space="preserve" text-anchor="middle" x="299" y="-397.7" font-family="Courier,monospace" font-size="14.00" fill="#000000">123|12</text>
<text xml:space="preserve" text-anchor="middle" x="299" y="-381.2" font-family="Courier,monospace" font-size="14.00" fill="#000000">τ={}</text>
</g>
<!-- v_231_1 -->
<g id="node19" class="node">
<title>v_231_1</title>
<polygon fill="#a8d5e2" stroke="black" points="444.62,-325.5 387.38,-325.5 387.38,-284.5 444.62,-284.5 444.62,-325.5"/>
<text xml:space="preserve" text-anchor="middle" x="416" y="-308.2" font-family="Courier,monospace" font-size="14.00" fill="#000000">231|1</text>
<text xml:space="preserve" text-anchor="middle" x="416" y="-291.7" font-family="Courier,monospace" font-size="14.00" fill="#000000">τ={2}</text>
</g>
<!-- v_132_1&#45;&gt;v_231_1 -->
<g id="edge16" class="edge">
<title>v_132_1&#45;&gt;v_231_1</title>
<path fill="none" stroke="black" d="M504.25,-373.57C500.03,-370.7 495.52,-368.04 491,-366 475.26,-358.91 467.44,-367.46 453,-358 444.41,-352.37 437.18,-344 431.47,-335.61"/>
<polygon fill="black" stroke="black" points="434.5,-333.85 426.25,-327.2 428.55,-337.54 434.5,-333.85"/>
</g>
<!-- v_231_3 -->
<g id="node20" class="node">
<title>v_231_3</title>
<polygon fill="#f4a261" stroke="black" points="519.62,-325.5 462.38,-325.5 462.38,-284.5 519.62,-284.5 519.62,-325.5"/>
<text xml:space="preserve" text-anchor="middle" x="491" y="-308.2" font-family="Courier,monospace" font-size="14.00" fill="#000000">231|3</text>
<text xml:space="preserve" text-anchor="middle" x="491" y="-291.7" font-family="Courier,monospace" font-size="14.00" fill="#000000">τ={2}</text>
</g>
<!-- v_132_1&#45;&gt;v_231_3 -->
<g id="edge19" class="edge">
<title>v_132_1&#45;&gt;v_231_3</title>
<path fill="none" stroke="black" d="M519.6,-373.64C514.92,-362.57 508.99,-348.55 503.75,-336.14"/>
<polygon fill="black" stroke="black" points="507.07,-335.02 499.95,-327.17 500.62,-337.74 507.07,-335.02"/>
</g>
<!-- v_312_1 -->
<g id="node21" class="node">
<title>v_312_1</title>
<polygon fill="#a8d5e2" stroke="black" points="594.62,-325.5 537.38,-325.5 537.38,-284.5 594.62,-284.5 594.62,-325.5"/>
<text xml:space="preserve" text-anchor="middle" x="566" y="-308.2" font-family="Courier,monospace" font-size="14.00" fill="#000000">312|1</text>
<text xml:space="preserve" text-anchor="middle" x="566" y="-291.7" font-family="Courier,monospace" font-size="14.00" fill="#000000">τ={1}</text>
</g>
<!-- v_132_1&#45;&gt;v_312_1 -->
<g id="edge27" class="edge">
<title>v_132_1&#45;&gt;v_312_1</title>
<path fill="none" stroke="black" d="M536.62,-373.64C541.43,-362.57 547.52,-348.55 552.91,-336.14"/>
<polygon fill="black" stroke="black" points="556.04,-337.73 556.81,-327.16 549.61,-334.94 556.04,-337.73"/>
</g>
<!-- v_312_2 -->
<g id="node22" class="node">
<title>v_312_2</title>
<polygon fill="#95d5b2" stroke="black" points="669.62,-325.5 612.38,-325.5 612.38,-284.5 669.62,-284.5 669.62,-325.5"/>
<text xml:space="preserve" text-anchor="middle" x="641" y="-308.2" font-family="Courier,monospace" font-size="14.00" fill="#000000">312|2</text>
<text xml:space="preserve" text-anchor="middle" x="641" y="-291.7" font-family="Courier,monospace" font-size="14.00" fill="#000000">τ={1}</text>
</g>
<!-- v_132_1&#45;&gt;v_312_2 -->
<g id="edge30" class="edge">
<title>v_132_1&#45;&gt;v_312_2</title>
<path fill="none" stroke="black" d="M551.74,-373.55C555.96,-370.68 560.47,-368.03 565,-366 581.15,-358.77 589.17,-367.66 604,-358 612.61,-352.39 619.83,-344.03 625.55,-335.63"/>
<polygon fill="black" stroke="black" points="628.47,-337.57 630.76,-327.22 622.52,-333.88 628.47,-337.57"/>
</g>
<!-- v_213_12 -->
<g id="node18" class="node">
<title>v_213_12</title>
<polygon fill="#ffd6a5" stroke="black" points="369.75,-325.5 304.25,-325.5 304.25,-284.5 369.75,-284.5 369.75,-325.5"/>
<text xml:space="preserve" text-anchor="middle" x="337" y="-308.2" font-family="Courier,monospace" font-size="14.00" fill="#000000">213|12</text>
<text xml:space="preserve" text-anchor="middle" x="337" y="-291.7" font-family="Courier,monospace" font-size="14.00" fill="#000000">τ={1}</text>
</g>
<!-- v_213_1&#45;&gt;v_213_12 -->
<g id="edge11" class="edge">
<title>v_213_1&#45;&gt;v_213_12</title>
<path fill="none" stroke="black" d="M368.7,-373.64C363.51,-362.57 356.94,-348.55 351.12,-336.14"/>
<polygon fill="black" stroke="black" points="354.32,-334.72 346.91,-327.15 347.98,-337.69 354.32,-334.72"/>
</g>
<!-- v_213_1&#45;&gt;v_231_1 -->
<g id="edge15" class="edge">
<title>v_213_1&#45;&gt;v_231_1</title>
<path fill="none" stroke="black" d="M386.62,-373.64C391.43,-362.57 397.52,-348.55 402.91,-336.14"/>
<polygon fill="black" stroke="black" points="406.04,-337.73 406.81,-327.16 399.61,-334.94 406.04,-337.73"/>
</g>
<!-- v_213_1&#45;&gt;v_312_1 -->
<g id="edge26" class="edge">
<title>v_213_1&#45;&gt;v_312_1</title>
<path fill="none" stroke="black" d="M400.7,-373.57C405.19,-370.55 410.05,-367.83 415,-366 438.82,-357.18 506.85,-370.42 529,-358 538.27,-352.8 545.78,-344.2 551.56,-335.47"/>
<polygon fill="black" stroke="black" points="554.47,-337.43 556.57,-327.05 548.45,-333.85 554.47,-337.43"/>
</g>
<!-- v_213_2&#45;&gt;v_213_12 -->
<g id="edge10" class="edge">
<title>v_213_2&#45;&gt;v_213_12</title>
<path fill="none" stroke="black" d="M429.25,-373.57C425.03,-370.7 420.52,-368.04 416,-366 400.26,-358.91 392.67,-367.1 378,-358 368.84,-352.32 360.9,-343.83 354.5,-335.35"/>
<polygon fill="black" stroke="black" points="357.4,-333.38 348.82,-327.17 351.65,-337.38 357.4,-333.38"/>
</g>
<!-- v_213_2&#45;&gt;v_231_3 -->
<g id="edge17" class="edge">
<title>v_213_2&#45;&gt;v_231_3</title>
<path fill="none" stroke="black" d="M461.62,-373.64C466.43,-362.57 472.52,-348.55 477.91,-336.14"/>
<polygon fill="black" stroke="black" points="481.04,-337.73 481.81,-327.16 474.61,-334.94 481.04,-337.73"/>
</g>
<!-- v_213_2&#45;&gt;v_312_2 -->
<g id="edge28" class="edge">
<title>v_213_2&#45;&gt;v_312_2</title>
<path fill="none" stroke="black" d="M475.7,-373.57C480.19,-370.55 485.05,-367.83 490,-366 513.82,-357.18 581.85,-370.42 604,-358 613.27,-352.8 620.78,-344.2 626.56,-335.47"/>
<polygon fill="black" stroke="black" points="629.47,-337.43 631.57,-327.05 623.45,-333.85 629.47,-337.43"/>
</g>
<!-- v_231_&#45;&gt;v_231_1 -->
<g id="edge14" class="edge">
<title>v_231_&#45;&gt;v_231_1</title>
<path fill="none" stroke="black" d="M580.29,-373.57C575.81,-370.55 570.95,-367.84 566,-366 542.4,-357.25 474.95,-370.32 453,-358 443.73,-352.8 436.22,-344.2 430.44,-335.47"/>
<polygon fill="black" stroke="black" points="433.55,-333.85 425.43,-327.04 427.53,-337.43 433.55,-333.85"/>
</g>
<!-- v_231_&#45;&gt;v_231_3 -->
<g id="edge18" class="edge">
<title>v_231_&#45;&gt;v_231_3</title>
<path fill="none" stroke="black" d="M579.25,-373.57C575.03,-370.7 570.52,-368.04 566,-366 550.26,-358.91 542.44,-367.46 528,-358 519.41,-352.37 512.18,-344 506.47,-335.61"/>
<polygon fill="black" stroke="black" points="509.5,-333.85 501.25,-327.2 503.55,-337.54 509.5,-333.85"/>
</g>
<!-- v_321_ -->
<g id="node23" class="node">
<title>v_321_</title>
<polygon fill="#f0f0f0" stroke="black" points="761.88,-325.5 688.12,-325.5 688.12,-284.5 761.88,-284.5 761.88,-325.5"/>
<text xml:space="preserve" text-anchor="middle" x="725" y="-308.2" font-family="Courier,monospace" font-size="14.00" fill="#000000">321</text>
<text xml:space="preserve" text-anchor="middle" x="725" y="-291.7" font-family="Courier,monospace" font-size="14.00" fill="#000000">τ={1,2}</text>
</g>
<!-- v_231_&#45;&gt;v_321_ -->
<g id="edge34" class="edge">
<title>v_231_&#45;&gt;v_321_</title>
<path fill="none" stroke="black" d="M626.74,-373.55C630.96,-370.68 635.47,-368.03 640,-366 656.15,-358.77 663.68,-366.86 679,-358 688.99,-352.22 697.94,-343.49 705.23,-334.83"/>
<polygon fill="black" stroke="black" points="707.85,-337.16 711.27,-327.14 702.34,-332.84 707.85,-337.16"/>
</g>
<!-- v_312_&#45;&gt;v_312_1 -->
<g id="edge25" class="edge">
<title>v_312_&#45;&gt;v_312_1</title>
<path fill="none" stroke="black" d="M654.25,-373.57C650.03,-370.7 645.52,-368.04 641,-366 625.26,-358.91 617.44,-367.46 603,-358 594.41,-352.37 587.18,-344 581.47,-335.61"/>
<polygon fill="black" stroke="black" points="584.5,-333.85 576.25,-327.2 578.55,-337.54 584.5,-333.85"/>
</g>
<!-- v_312_&#45;&gt;v_312_2 -->
<g id="edge29" class="edge">
<title>v_312_&#45;&gt;v_312_2</title>
<path fill="none" stroke="black" d="M669.6,-373.64C664.92,-362.57 658.99,-348.55 653.75,-336.14"/>
<polygon fill="black" stroke="black" points="657.07,-335.02 649.95,-327.17 650.62,-337.74 657.07,-335.02"/>
</g>
<!-- v_312_&#45;&gt;v_321_ -->
<g id="edge35" class="edge">
<title>v_312_&#45;&gt;v_321_</title>
<path fill="none" stroke="black" d="M688.67,-373.64C694.67,-362.46 702.3,-348.26 709.01,-335.77"/>
<polygon fill="black" stroke="black" points="712.01,-337.58 713.66,-327.11 705.85,-334.26 712.01,-337.58"/>
</g>
<!-- v_123_123 -->
<g id="node15" class="node">
<title>v_123_123</title>
<polygon fill="#ffb5a7" stroke="black" points="117.88,-325.5 44.12,-325.5 44.12,-284.5 117.88,-284.5 117.88,-325.5"/>
<text xml:space="preserve" text-anchor="middle" x="81" y="-308.2" font-family="Courier,monospace" font-size="14.00" fill="#000000">123|123</text>
<text xml:space="preserve" text-anchor="middle" x="81" y="-291.7" font-family="Courier,monospace" font-size="14.00" fill="#000000">τ={}</text>
</g>
<!-- v_132_12 -->
<g id="node16" class="node">
<title>v_132_12</title>
<polygon fill="#ffd6a5" stroke="black" points="201.75,-325.5 136.25,-325.5 136.25,-284.5 201.75,-284.5 201.75,-325.5"/>
<text xml:space="preserve" text-anchor="middle" x="169" y="-308.2" font-family="Courier,monospace" font-size="14.00" fill="#000000">132|12</text>
<text xml:space="preserve" text-anchor="middle" x="169" y="-291.7" font-family="Courier,monospace" font-size="14.00" fill="#000000">τ={2}</text>
</g>
<!-- v_132_13 -->
<g id="node17" class="node">
<title>v_132_13</title>
<polygon fill="#e9c46a" stroke="black" points="285.75,-325.5 220.25,-325.5 220.25,-284.5 285.75,-284.5 285.75,-325.5"/>
<text xml:space="preserve" text-anchor="middle" x="253" y="-308.2" font-family="Courier,monospace" font-size="14.00" fill="#000000">132|13</text>
<text xml:space="preserve" text-anchor="middle" x="253" y="-291.7" font-family="Courier,monospace" font-size="14.00" fill="#000000">τ={2}</text>
</g>
<!-- v_231_13 -->
<g id="node27" class="node">
<title>v_231_13</title>
<polygon fill="#e9c46a" stroke="black" points="349.75,-236 284.25,-236 284.25,-195 349.75,-195 349.75,-236"/>
<text xml:space="preserve" text-anchor="middle" x="317" y="-218.7" font-family="Courier,monospace" font-size="14.00" fill="#000000">231|13</text>
<text xml:space="preserve" text-anchor="middle" x="317" y="-202.2" font-family="Courier,monospace" font-size="14.00" fill="#000000">τ={2}</text>
</g>
<!-- v_213_12&#45;&gt;v_231_13 -->
<g id="edge21" class="edge">
<title>v_213_12&#45;&gt;v_231_13</title>
<path fill="none" stroke="black" d="M332.46,-284.14C329.98,-273.29 326.85,-259.61 324.06,-247.4"/>
<polygon fill="black" stroke="black" points="327.5,-246.72 321.86,-237.75 320.67,-248.28 327.5,-246.72"/>
</g>
<!-- v_312_12 -->
<g id="node28" class="node">
<title>v_312_12</title>
<polygon fill="#ffd6a5" stroke="black" points="609.75,-236 544.25,-236 544.25,-195 609.75,-195 609.75,-236"/>
<text xml:space="preserve" text-anchor="middle" x="577" y="-218.7" font-family="Courier,monospace" font-size="14.00" fill="#000000">312|12</text>
<text xml:space="preserve" text-anchor="middle" x="577" y="-202.2" font-family="Courier,monospace" font-size="14.00" fill="#000000">τ={1}</text>
</g>
<!-- v_213_12&#45;&gt;v_312_12 -->
<g id="edge32" class="edge">
<title>v_213_12&#45;&gt;v_312_12</title>
<path fill="none" stroke="black" d="M361.91,-284.26C366.98,-281.14 372.47,-278.34 378,-276.5 411.15,-265.48 503.87,-284.36 535,-268.5 545.02,-263.39 553.48,-254.7 560.12,-245.86"/>
<polygon fill="black" stroke="black" points="562.98,-247.87 565.74,-237.64 557.21,-243.92 562.98,-247.87"/>
</g>
<!-- v_321_2 -->
<g id="node31" class="node">
<title>v_321_2</title>
<polygon fill="#95d5b2" stroke="black" points="701.88,-236 628.12,-236 628.12,-195 701.88,-195 701.88,-236"/>
<text xml:space="preserve" text-anchor="middle" x="665" y="-218.7" font-family="Courier,monospace" font-size="14.00" fill="#000000">321|2</text>
<text xml:space="preserve" text-anchor="middle" x="665" y="-202.2" font-family="Courier,monospace" font-size="14.00" fill="#000000">τ={1,2}</text>
</g>
<!-- v_213_12&#45;&gt;v_321_2 -->
<g id="edge41" class="edge">
<title>v_213_12&#45;&gt;v_321_2</title>
<path fill="none" stroke="black" d="M361.88,-284.18C366.96,-281.07 372.45,-278.29 378,-276.5 403.5,-268.28 594.76,-279.91 619,-268.5 629.88,-263.38 639.26,-254.36 646.67,-245.25"/>
<polygon fill="black" stroke="black" points="649.3,-247.57 652.49,-237.46 643.7,-243.38 649.3,-247.57"/>
</g>
<!-- v_231_1&#45;&gt;v_231_13 -->
<g id="edge22" class="edge">
<title>v_231_1&#45;&gt;v_231_13</title>
<path fill="none" stroke="black" d="M391.11,-284.16C387.17,-281.42 383.05,-278.77 379,-276.5 370.64,-271.83 366.7,-274.19 359,-268.5 350.45,-262.19 342.65,-253.74 336.15,-245.49"/>
<polygon fill="black" stroke="black" points="339.06,-243.55 330.29,-237.61 333.44,-247.72 339.06,-243.55"/>
</g>
<!-- v_321_1 -->
<g id="node30" class="node">
<title>v_321_1</title>
<polygon fill="#a8d5e2" stroke="black" points="441.88,-236 368.12,-236 368.12,-195 441.88,-195 441.88,-236"/>
<text xml:space="preserve" text-anchor="middle" x="405" y="-218.7" font-family="Courier,monospace" font-size="14.00" fill="#000000">321|1</text>
<text xml:space="preserve" text-anchor="middle" x="405" y="-202.2" font-family="Courier,monospace" font-size="14.00" fill="#000000">τ={1,2}</text>
</g>
<!-- v_231_1&#45;&gt;v_321_1 -->
<g id="edge37" class="edge">
<title>v_231_1&#45;&gt;v_321_1</title>
<path fill="none" stroke="black" d="M413.5,-284.14C412.14,-273.29 410.42,-259.61 408.88,-247.4"/>
<polygon fill="black" stroke="black" points="412.4,-247.26 407.67,-237.78 405.45,-248.14 412.4,-247.26"/>
</g>
<!-- v_231_1&#45;&gt;v_321_2 -->
<g id="edge42" class="edge">
<title>v_231_1&#45;&gt;v_321_2</title>
<path fill="none" stroke="black" d="M438.26,-284.26C442.86,-281.13 447.88,-278.33 453,-276.5 487.77,-264.06 585.7,-284.48 619,-268.5 629.76,-263.34 639.08,-254.39 646.46,-245.36"/>
<polygon fill="black" stroke="black" points="649.05,-247.74 652.26,-237.65 643.45,-243.53 649.05,-247.74"/>
</g>
<!-- v_231_3&#45;&gt;v_231_13 -->
<g id="edge20" class="edge">
<title>v_231_3&#45;&gt;v_231_13</title>
<path fill="none" stroke="black" d="M468.27,-284.13C463.79,-281.1 458.94,-278.37 454,-276.5 414.37,-261.51 396.43,-288.36 359,-268.5 349.14,-263.27 340.76,-254.63 334.14,-245.87"/>
<polygon fill="black" stroke="black" points="337.08,-243.98 328.52,-237.74 331.32,-247.95 337.08,-243.98"/>
</g>
<!-- v_321_3 -->
<g id="node32" class="node">
<title>v_321_3</title>
<polygon fill="#f4a261" stroke="black" points="793.88,-236 720.12,-236 720.12,-195 793.88,-195 793.88,-236"/>
<text xml:space="preserve" text-anchor="middle" x="757" y="-218.7" font-family="Courier,monospace" font-size="14.00" fill="#000000">321|3</text>
<text xml:space="preserve" text-anchor="middle" x="757" y="-202.2" font-family="Courier,monospace" font-size="14.00" fill="#000000">τ={1,2}</text>
</g>
<!-- v_231_3&#45;&gt;v_321_3 -->
<g id="edge45" class="edge">
<title>v_231_3&#45;&gt;v_321_3</title>
<path fill="none" stroke="black" d="M513.26,-284.24C517.86,-281.12 522.87,-278.32 528,-276.5 566.36,-262.87 674.26,-286.03 711,-268.5 721.77,-263.36 731.09,-254.42 738.47,-245.39"/>
<polygon fill="black" stroke="black" points="741.06,-247.76 744.28,-237.67 735.47,-243.56 741.06,-247.76"/>
</g>
<!-- v_312_1&#45;&gt;v_312_12 -->
<g id="edge33" class="edge">
<title>v_312_1&#45;&gt;v_312_12</title>
<path fill="none" stroke="black" d="M568.5,-284.14C569.86,-273.29 571.58,-259.61 573.12,-247.4"/>
<polygon fill="black" stroke="black" points="576.55,-248.14 574.33,-237.78 569.6,-247.26 576.55,-248.14"/>
</g>
<!-- v_312_1&#45;&gt;v_321_1 -->
<g id="edge38" class="edge">
<title>v_312_1&#45;&gt;v_321_1</title>
<path fill="none" stroke="black" d="M543.25,-284.2C538.77,-281.17 533.92,-278.41 529,-276.5 496.52,-263.88 482,-284.42 451,-268.5 440.58,-263.15 431.43,-254.36 424.1,-245.52"/>
<polygon fill="black" stroke="black" points="426.92,-243.44 418.07,-237.63 421.36,-247.7 426.92,-243.44"/>
</g>
<!-- v_312_2&#45;&gt;v_312_12 -->
<g id="edge31" class="edge">
<title>v_312_2&#45;&gt;v_312_12</title>
<path fill="none" stroke="black" d="M626.48,-284.14C618.13,-272.73 607.5,-258.19 598.23,-245.52"/>
<polygon fill="black" stroke="black" points="601.09,-243.5 592.36,-237.5 595.44,-247.64 601.09,-243.5"/>
</g>
<!-- v_312_2&#45;&gt;v_321_2 -->
<g id="edge40" class="edge">
<title>v_312_2&#45;&gt;v_321_2</title>
<path fill="none" stroke="black" d="M646.45,-284.14C649.45,-273.18 653.25,-259.33 656.63,-247.02"/>
<polygon fill="black" stroke="black" points="659.91,-248.31 659.18,-237.74 653.15,-246.45 659.91,-248.31"/>
</g>
<!-- v_312_2&#45;&gt;v_321_3 -->
<g id="edge44" class="edge">
<title>v_312_2&#45;&gt;v_321_3</title>
<path fill="none" stroke="black" d="M665.51,-284.23C669.83,-281.34 674.42,-278.63 679,-276.5 692.29,-270.31 698.47,-276.11 711,-268.5 720.79,-262.56 729.65,-253.86 736.92,-245.28"/>
<polygon fill="black" stroke="black" points="739.47,-247.69 742.95,-237.68 733.99,-243.34 739.47,-247.69"/>
</g>
<!-- v_321_&#45;&gt;v_321_1 -->
<g id="edge36" class="edge">
<title>v_321_&#45;&gt;v_321_1</title>
<path fill="none" stroke="black" d="M696.58,-284.05C690.98,-280.99 684.98,-278.26 679,-276.5 654.69,-269.33 473.93,-279.32 451,-268.5 440.13,-263.37 430.74,-254.34 423.34,-245.23"/>
<polygon fill="black" stroke="black" points="426.31,-243.36 417.52,-237.45 420.7,-247.56 426.31,-243.36"/>
</g>
<!-- v_321_&#45;&gt;v_321_2 -->
<g id="edge39" class="edge">
<title>v_321_&#45;&gt;v_321_2</title>
<path fill="none" stroke="black" d="M711.39,-284.14C703.56,-272.73 693.59,-258.19 684.9,-245.52"/>
<polygon fill="black" stroke="black" points="687.96,-243.79 679.42,-237.52 682.19,-247.75 687.96,-243.79"/>
</g>
<!-- v_321_&#45;&gt;v_321_3 -->
<g id="edge43" class="edge">
<title>v_321_&#45;&gt;v_321_3</title>
<path fill="none" stroke="black" d="M732.26,-284.14C736.27,-273.18 741.34,-259.33 745.84,-247.02"/>
<polygon fill="black" stroke="black" points="749.1,-248.29 749.25,-237.7 742.53,-245.89 749.1,-248.29"/>
</g>
<!-- v_132_123 -->
<g id="node24" class="node">
<title>v_132_123</title>
<polygon fill="#ffb5a7" stroke="black" points="89.88,-236 16.12,-236 16.12,-195 89.88,-195 89.88,-236"/>
<text xml:space="preserve" text-anchor="middle" x="53" y="-218.7" font-family="Courier,monospace" font-size="14.00" fill="#000000">132|123</text>
<text xml:space="preserve" text-anchor="middle" x="53" y="-202.2" font-family="Courier,monospace" font-size="14.00" fill="#000000">τ={2}</text>
</g>
<!-- v_213_123 -->
<g id="node25" class="node">
<title>v_213_123</title>
<polygon fill="#ffb5a7" stroke="black" points="181.88,-236 108.12,-236 108.12,-195 181.88,-195 181.88,-236"/>
<text xml:space="preserve" text-anchor="middle" x="145" y="-218.7" font-family="Courier,monospace" font-size="14.00" fill="#000000">213|123</text>
<text xml:space="preserve" text-anchor="middle" x="145" y="-202.2" font-family="Courier,monospace" font-size="14.00" fill="#000000">τ={1}</text>
</g>
<!-- v_231_12 -->
<g id="node26" class="node">
<title>v_231_12</title>
<polygon fill="#ffd6a5" stroke="black" points="265.75,-236 200.25,-236 200.25,-195 265.75,-195 265.75,-236"/>
<text xml:space="preserve" text-anchor="middle" x="233" y="-218.7" font-family="Courier,monospace" font-size="14.00" fill="#000000">231|12</text>
<text xml:space="preserve" text-anchor="middle" x="233" y="-202.2" font-family="Courier,monospace" font-size="14.00" fill="#000000">τ={2}</text>
</g>
<!-- v_321_13 -->
<g id="node36" class="node">
<title>v_321_13</title>
<polygon fill="#e9c46a" stroke="black" points="519.88,-146.5 446.12,-146.5 446.12,-105.5 519.88,-105.5 519.88,-146.5"/>
<text xml:space="preserve" text-anchor="middle" x="483" y="-129.2" font-family="Courier,monospace" font-size="14.00" fill="#000000">321|13</text>
<text xml:space="preserve" text-anchor="middle" x="483" y="-112.7" font-family="Courier,monospace" font-size="14.00" fill="#000000">τ={1,2}</text>
</g>
<!-- v_231_13&#45;&gt;v_321_13 -->
<g id="edge50" class="edge">
<title>v_231_13&#45;&gt;v_321_13</title>
<path fill="none" stroke="black" d="M343.11,-194.72C348.16,-191.68 353.58,-188.92 359,-187 391.84,-175.35 406,-194.92 437,-179 447.42,-173.65 456.57,-164.86 463.9,-156.02"/>
<polygon fill="black" stroke="black" points="466.64,-158.2 469.93,-148.13 461.08,-153.94 466.64,-158.2"/>
</g>
<!-- v_321_23 -->
<g id="node37" class="node">
<title>v_321_23</title>
<polygon fill="#98c1d9" stroke="black" points="703.88,-146.5 630.12,-146.5 630.12,-105.5 703.88,-105.5 703.88,-146.5"/>
<text xml:space="preserve" text-anchor="middle" x="667" y="-129.2" font-family="Courier,monospace" font-size="14.00" fill="#000000">321|23</text>
<text xml:space="preserve" text-anchor="middle" x="667" y="-112.7" font-family="Courier,monospace" font-size="14.00" fill="#000000">τ={1,2}</text>
</g>
<!-- v_231_13&#45;&gt;v_321_23 -->
<g id="edge54" class="edge">
<title>v_231_13&#45;&gt;v_321_23</title>
<path fill="none" stroke="black" d="M342.54,-194.67C347.73,-191.56 353.35,-188.78 359,-187 386.78,-178.25 594.63,-191.37 621,-179 631.89,-173.89 641.27,-164.87 648.67,-155.76"/>
<polygon fill="black" stroke="black" points="651.31,-158.08 654.49,-147.98 645.7,-153.89 651.31,-158.08"/>
</g>
<!-- v_321_12 -->
<g id="node35" class="node">
<title>v_321_12</title>
<polygon fill="#ffd6a5" stroke="black" points="611.88,-146.5 538.12,-146.5 538.12,-105.5 611.88,-105.5 611.88,-146.5"/>
<text xml:space="preserve" text-anchor="middle" x="575" y="-129.2" font-family="Courier,monospace" font-size="14.00" fill="#000000">321|12</text>
<text xml:space="preserve" text-anchor="middle" x="575" y="-112.7" font-family="Courier,monospace" font-size="14.00" fill="#000000">τ={1,2}</text>
</g>
<!-- v_312_12&#45;&gt;v_321_12 -->
<g id="edge47" class="edge">
<title>v_312_12&#45;&gt;v_321_12</title>
<path fill="none" stroke="black" d="M576.55,-194.64C576.3,-183.9 575.99,-170.39 575.71,-158.28"/>
<polygon fill="black" stroke="black" points="579.21,-158.21 575.49,-148.29 572.22,-158.37 579.21,-158.21"/>
</g>
<!-- v_312_12&#45;&gt;v_321_13 -->
<g id="edge52" class="edge">
<title>v_312_12&#45;&gt;v_321_13</title>
<path fill="none" stroke="black" d="M548.05,-194.61C541.57,-189.75 534.88,-184.39 529,-179 521.12,-171.78 513.18,-163.33 506.17,-155.36"/>
<polygon fill="black" stroke="black" points="508.86,-153.12 499.69,-147.81 503.55,-157.68 508.86,-153.12"/>
</g>
<!-- v_312_23 -->
<g id="node29" class="node">
<title>v_312_23</title>
<polygon fill="#98c1d9" stroke="black" points="525.75,-236 460.25,-236 460.25,-195 525.75,-195 525.75,-236"/>
<text xml:space="preserve" text-anchor="middle" x="493" y="-218.7" font-family="Courier,monospace" font-size="14.00" fill="#000000">312|23</text>
<text xml:space="preserve" text-anchor="middle" x="493" y="-202.2" font-family="Courier,monospace" font-size="14.00" fill="#000000">τ={1}</text>
</g>
<!-- v_321_1&#45;&gt;v_321_12 -->
<g id="edge46" class="edge">
<title>v_321_1&#45;&gt;v_321_12</title>
<path fill="none" stroke="black" d="M434.02,-194.6C439.47,-191.62 445.26,-188.91 451,-187 484.07,-176.02 498,-194.92 529,-179 539.42,-173.65 548.57,-164.86 555.9,-156.02"/>
<polygon fill="black" stroke="black" points="558.64,-158.2 561.93,-148.13 553.08,-153.94 558.64,-158.2"/>
</g>
<!-- v_321_1&#45;&gt;v_321_13 -->
<g id="edge51" class="edge">
<title>v_321_1&#45;&gt;v_321_13</title>
<path fill="none" stroke="black" d="M422.97,-194.63C427.56,-189.54 432.47,-184.08 437,-179 443.96,-171.21 451.47,-162.73 458.38,-154.93"/>
<polygon fill="black" stroke="black" points="460.57,-157.74 464.57,-147.93 455.32,-153.1 460.57,-157.74"/>
</g>
<!-- v_321_2&#45;&gt;v_321_12 -->
<g id="edge48" class="edge">
<title>v_321_2&#45;&gt;v_321_12</title>
<path fill="none" stroke="black" d="M638.79,-194.55C632.78,-189.65 626.53,-184.29 621,-179 613.4,-171.74 605.64,-163.39 598.72,-155.54"/>
<polygon fill="black" stroke="black" points="601.48,-153.39 592.29,-148.12 596.19,-157.97 601.48,-153.39"/>
</g>
<!-- v_321_2&#45;&gt;v_321_23 -->
<g id="edge55" class="edge">
<title>v_321_2&#45;&gt;v_321_23</title>
<path fill="none" stroke="black" d="M665.45,-194.64C665.7,-183.9 666.01,-170.39 666.29,-158.28"/>
<polygon fill="black" stroke="black" points="669.78,-158.37 666.51,-148.29 662.79,-158.21 669.78,-158.37"/>
</g>
<!-- v_321_3&#45;&gt;v_321_13 -->
<g id="edge49" class="edge">
<title>v_321_3&#45;&gt;v_321_13</title>
<path fill="none" stroke="black" d="M728.57,-194.59C722.97,-191.53 716.97,-188.79 711,-187 672.22,-175.37 565.54,-196.44 529,-179 518.23,-173.86 508.91,-164.92 501.53,-155.89"/>
<polygon fill="black" stroke="black" points="504.53,-154.06 495.73,-148.17 498.94,-158.26 504.53,-154.06"/>
</g>
<!-- v_321_3&#45;&gt;v_321_23 -->
<g id="edge53" class="edge">
<title>v_321_3&#45;&gt;v_321_23</title>
<path fill="none" stroke="black" d="M736.58,-194.64C724.38,-182.79 708.71,-167.55 695.33,-154.54"/>
<polygon fill="black" stroke="black" points="698.04,-152.29 688.43,-147.83 693.16,-157.31 698.04,-152.29"/>
</g>
<!-- v_231_123 -->
<g id="node33" class="node">
<title>v_231_123</title>
<polygon fill="#ffb5a7" stroke="black" points="335.88,-146.5 262.12,-146.5 262.12,-105.5 335.88,-105.5 335.88,-146.5"/>
<text xml:space="preserve" text-anchor="middle" x="299" y="-129.2" font-family="Courier,monospace" font-size="14.00" fill="#000000">231|123</text>
<text xml:space="preserve" text-anchor="middle" x="299" y="-112.7" font-family="Courier,monospace" font-size="14.00" fill="#000000">τ={2}</text>
</g>
<!-- v_312_123 -->
<g id="node34" class="node">
<title>v_312_123</title>
<polygon fill="#ffb5a7" stroke="black" points="427.88,-146.5 354.12,-146.5 354.12,-105.5 427.88,-105.5 427.88,-146.5"/>
<text xml:space="preserve" text-anchor="middle" x="391" y="-129.2" font-family="Courier,monospace" font-size="14.00" fill="#000000">312|123</text>
<text xml:space="preserve" text-anchor="middle" x="391" y="-112.7" font-family="Courier,monospace" font-size="14.00" fill="#000000">τ={1}</text>
</g>
<!-- v_321_123 -->
<g id="node38" class="node">
<title>v_321_123</title>
<polygon fill="#ffb5a7" stroke="black" points="611.88,-57 538.12,-57 538.12,-16 611.88,-16 611.88,-57"/>
<text xml:space="preserve" text-anchor="middle" x="575" y="-39.7" font-family="Courier,monospace" font-size="14.00" fill="#000000">321|123</text>
<text xml:space="preserve" text-anchor="middle" x="575" y="-23.2" font-family="Courier,monospace" font-size="14.00" fill="#000000">τ={1,2}</text>
</g>
<!-- v_321_12&#45;&gt;v_321_123 -->
<g id="edge57" class="edge">
<title>v_321_12&#45;&gt;v_321_123</title>
<path fill="none" stroke="black" d="M575,-105.14C575,-94.4 575,-80.89 575,-68.78"/>
<polygon fill="black" stroke="black" points="578.5,-68.79 575,-58.79 571.5,-68.79 578.5,-68.79"/>
</g>
<!-- v_321_13&#45;&gt;v_321_123 -->
<g id="edge56" class="edge">
<title>v_321_13&#45;&gt;v_321_123</title>
<path fill="none" stroke="black" d="M503.88,-105.14C516.34,-93.29 532.37,-78.05 546.04,-65.04"/>
<polygon fill="black" stroke="black" points="548.28,-67.75 553.11,-58.32 543.45,-62.68 548.28,-67.75"/>
</g>
<!-- v_321_23&#45;&gt;v_321_123 -->
<g id="edge58" class="edge">
<title>v_321_23&#45;&gt;v_321_123</title>
<path fill="none" stroke="black" d="M646.12,-105.14C633.66,-93.29 617.63,-78.05 603.96,-65.04"/>
<polygon fill="black" stroke="black" points="606.55,-62.68 596.89,-58.32 601.72,-67.75 606.55,-62.68"/>
</g>
</g>
</svg>
